# MagicaVoxel @ Ephtracy

# group
o 

# material
mtllib FarmIsland.mtl
usemtl palette

# normals
vn -1 0 0
vn 1 0 0
vn 0 0 1
vn 0 0 -1
vn 0 -1 0
vn 0 1 0

# texcoords
vt 0.783203 0.5
vt 0.787109 0.5
vt 0.791016 0.5
vt 0.794922 0.5

# verts
v -1.8 1.1 1.7
v -1.8 1.1 -1.8
v -1.8 1.2 1.7
v -1.8 1.2 -1.8
v -1.7 0.9 1.6
v -1.7 0.9 -1.7
v -1.7 1.1 1.6
v -1.7 1.1 -1.7
v -1.5 0.7 1.4
v -1.5 0.7 -1.5
v -1.5 0.9 1.4
v -1.5 0.9 -1.5
v -1.3 0.5 1.2
v -1.3 0.5 -1.3
v -1.3 0.7 1.2
v -1.3 0.7 -1.3
v -1.1 0.3 1
v -1.1 0.3 -1.1
v -1.1 0.5 1
v -1.1 0.5 -1.1
v -0.9 0.1 0.8
v -0.9 0.1 -0.9
v -0.9 0.3 0.8
v -0.9 0.3 -0.9
v -0.7 0 0.6
v -0.7 0 -0.7
v -0.7 0.1 0.6
v -0.7 0.1 -0.7
v 0.6 0 0.6
v 0.6 0 -0.7
v 0.6 0.1 0.6
v 0.6 0.1 -0.7
v 0.8 0.1 0.8
v 0.8 0.1 -0.9
v 0.8 0.3 0.8
v 0.8 0.3 -0.9
v 1 0.3 1
v 1 0.3 -1.1
v 1 0.5 1
v 1 0.5 -1.1
v 1.2 0.5 1.2
v 1.2 0.5 -1.3
v 1.2 0.7 1.2
v 1.2 0.7 -1.3
v 1.4 0.7 1.4
v 1.4 0.7 -1.5
v 1.4 0.9 1.4
v 1.4 0.9 -1.5
v 1.6 0.9 1.6
v 1.6 0.9 -1.7
v 1.6 1.1 1.6
v 1.6 1.1 -1.7
v 1.7 1.1 1.7
v 1.7 1.1 -1.8
v 1.7 1.2 1.7
v 1.7 1.2 -1.8
v -1.8 1.1 1.7
v -1.8 1.2 1.7
v 1.7 1.1 1.7
v 1.7 1.2 1.7
v -1.7 0.9 1.6
v -1.7 1.1 1.6
v 1.6 0.9 1.6
v 1.6 1.1 1.6
v -1.5 0.7 1.4
v -1.5 0.9 1.4
v 1.4 0.7 1.4
v 1.4 0.9 1.4
v -1.3 0.5 1.2
v -1.3 0.7 1.2
v 1.2 0.5 1.2
v 1.2 0.7 1.2
v -1.1 0.3 1
v -1.1 0.5 1
v 1 0.3 1
v 1 0.5 1
v -0.9 0.1 0.8
v -0.9 0.3 0.8
v 0.8 0.1 0.8
v 0.8 0.3 0.8
v -0.7 0 0.6
v -0.7 0.1 0.6
v 0.6 0 0.6
v 0.6 0.1 0.6
v -0.7 0 -0.7
v -0.7 0.1 -0.7
v 0.6 0 -0.7
v 0.6 0.1 -0.7
v -0.9 0.1 -0.9
v -0.9 0.3 -0.9
v 0.8 0.1 -0.9
v 0.8 0.3 -0.9
v -1.1 0.3 -1.1
v -1.1 0.5 -1.1
v 1 0.3 -1.1
v 1 0.5 -1.1
v -1.3 0.5 -1.3
v -1.3 0.7 -1.3
v 1.2 0.5 -1.3
v 1.2 0.7 -1.3
v -1.5 0.7 -1.5
v -1.5 0.9 -1.5
v 1.4 0.7 -1.5
v 1.4 0.9 -1.5
v -1.7 0.9 -1.7
v -1.7 1.1 -1.7
v 1.6 0.9 -1.7
v 1.6 1.1 -1.7
v -1.8 1.1 -1.8
v -1.8 1.2 -1.8
v 1.7 1.1 -1.8
v 1.7 1.2 -1.8
v -0.7 0 0.6
v 0.6 0 0.6
v -0.7 0 -0.7
v 0.6 0 -0.7
v -0.9 0.1 0.8
v 0.8 0.1 0.8
v -0.7 0.1 0.6
v 0.6 0.1 0.6
v -0.7 0.1 -0.7
v 0.6 0.1 -0.7
v -0.9 0.1 -0.9
v 0.8 0.1 -0.9
v -1.1 0.3 1
v 1 0.3 1
v -0.9 0.3 0.8
v 0.8 0.3 0.8
v -0.9 0.3 -0.9
v 0.8 0.3 -0.9
v -1.1 0.3 -1.1
v 1 0.3 -1.1
v -1.3 0.5 1.2
v 1.2 0.5 1.2
v -1.1 0.5 1
v 1 0.5 1
v -1.1 0.5 -1.1
v 1 0.5 -1.1
v -1.3 0.5 -1.3
v 1.2 0.5 -1.3
v -1.5 0.7 1.4
v 1.4 0.7 1.4
v -1.3 0.7 1.2
v 1.2 0.7 1.2
v -1.3 0.7 -1.3
v 1.2 0.7 -1.3
v -1.5 0.7 -1.5
v 1.4 0.7 -1.5
v -1.7 0.9 1.6
v 1.6 0.9 1.6
v -1.5 0.9 1.4
v 1.4 0.9 1.4
v -1.5 0.9 -1.5
v 1.4 0.9 -1.5
v -1.7 0.9 -1.7
v 1.6 0.9 -1.7
v -1.8 1.1 1.7
v 1.7 1.1 1.7
v -1.7 1.1 1.6
v 1.6 1.1 1.6
v -1.7 1.1 -1.7
v 1.6 1.1 -1.7
v -1.8 1.1 -1.8
v 1.7 1.1 -1.8
v -1.8 1.2 1.7
v 1.7 1.2 1.7
v -1.8 1.2 -1.8
v 1.7 1.2 -1.8

# faces
f 3/1/1 2/1/1 1/1/1
f 4/1/1 2/1/1 3/1/1
f 7/2/1 6/2/1 5/2/1
f 8/2/1 6/2/1 7/2/1
f 11/3/1 10/3/1 9/3/1
f 12/3/1 10/3/1 11/3/1
f 15/3/1 14/3/1 13/3/1
f 16/3/1 14/3/1 15/3/1
f 19/4/1 18/4/1 17/4/1
f 20/4/1 18/4/1 19/4/1
f 23/4/1 22/4/1 21/4/1
f 24/4/1 22/4/1 23/4/1
f 27/4/1 26/4/1 25/4/1
f 28/4/1 26/4/1 27/4/1
f 29/4/2 30/4/2 31/4/2
f 31/4/2 30/4/2 32/4/2
f 33/4/2 34/4/2 35/4/2
f 35/4/2 34/4/2 36/4/2
f 37/4/2 38/4/2 39/4/2
f 39/4/2 38/4/2 40/4/2
f 41/3/2 42/3/2 43/3/2
f 43/3/2 42/3/2 44/3/2
f 45/3/2 46/3/2 47/3/2
f 47/3/2 46/3/2 48/3/2
f 49/2/2 50/2/2 51/2/2
f 51/2/2 50/2/2 52/2/2
f 53/1/2 54/1/2 55/1/2
f 55/1/2 54/1/2 56/1/2
f 59/1/3 58/1/3 57/1/3
f 60/1/3 58/1/3 59/1/3
f 63/2/3 62/2/3 61/2/3
f 64/2/3 62/2/3 63/2/3
f 67/3/3 66/3/3 65/3/3
f 68/3/3 66/3/3 67/3/3
f 71/3/3 70/3/3 69/3/3
f 72/3/3 70/3/3 71/3/3
f 75/4/3 74/4/3 73/4/3
f 76/4/3 74/4/3 75/4/3
f 79/4/3 78/4/3 77/4/3
f 80/4/3 78/4/3 79/4/3
f 83/4/3 82/4/3 81/4/3
f 84/4/3 82/4/3 83/4/3
f 85/4/4 86/4/4 87/4/4
f 87/4/4 86/4/4 88/4/4
f 89/4/4 90/4/4 91/4/4
f 91/4/4 90/4/4 92/4/4
f 93/4/4 94/4/4 95/4/4
f 95/4/4 94/4/4 96/4/4
f 97/3/4 98/3/4 99/3/4
f 99/3/4 98/3/4 100/3/4
f 101/3/4 102/3/4 103/3/4
f 103/3/4 102/3/4 104/3/4
f 105/2/4 106/2/4 107/2/4
f 107/2/4 106/2/4 108/2/4
f 109/1/4 110/1/4 111/1/4
f 111/1/4 110/1/4 112/1/4
f 115/4/5 114/4/5 113/4/5
f 116/4/5 114/4/5 115/4/5
f 119/4/5 118/4/5 117/4/5
f 120/4/5 118/4/5 119/4/5
f 121/4/5 119/4/5 117/4/5
f 122/4/5 118/4/5 120/4/5
f 123/4/5 121/4/5 117/4/5
f 123/4/5 122/4/5 121/4/5
f 124/4/5 118/4/5 122/4/5
f 124/4/5 122/4/5 123/4/5
f 127/4/5 126/4/5 125/4/5
f 128/4/5 126/4/5 127/4/5
f 129/4/5 127/4/5 125/4/5
f 130/4/5 126/4/5 128/4/5
f 131/4/5 129/4/5 125/4/5
f 131/4/5 130/4/5 129/4/5
f 132/4/5 126/4/5 130/4/5
f 132/4/5 130/4/5 131/4/5
f 135/3/5 134/3/5 133/3/5
f 136/3/5 134/3/5 135/3/5
f 137/3/5 135/3/5 133/3/5
f 138/3/5 134/3/5 136/3/5
f 139/3/5 137/3/5 133/3/5
f 139/3/5 138/3/5 137/3/5
f 140/3/5 134/3/5 138/3/5
f 140/3/5 138/3/5 139/3/5
f 143/3/5 142/3/5 141/3/5
f 144/3/5 142/3/5 143/3/5
f 145/3/5 143/3/5 141/3/5
f 146/3/5 142/3/5 144/3/5
f 147/3/5 145/3/5 141/3/5
f 147/3/5 146/3/5 145/3/5
f 148/3/5 142/3/5 146/3/5
f 148/3/5 146/3/5 147/3/5
f 151/2/5 150/2/5 149/2/5
f 152/2/5 150/2/5 151/2/5
f 153/2/5 151/2/5 149/2/5
f 154/2/5 150/2/5 152/2/5
f 155/2/5 153/2/5 149/2/5
f 155/2/5 154/2/5 153/2/5
f 156/2/5 150/2/5 154/2/5
f 156/2/5 154/2/5 155/2/5
f 159/1/5 158/1/5 157/1/5
f 160/1/5 158/1/5 159/1/5
f 161/1/5 159/1/5 157/1/5
f 162/1/5 158/1/5 160/1/5
f 163/1/5 161/1/5 157/1/5
f 163/1/5 162/1/5 161/1/5
f 164/1/5 158/1/5 162/1/5
f 164/1/5 162/1/5 163/1/5
f 165/1/6 166/1/6 167/1/6
f 167/1/6 166/1/6 168/1/6
