# MagicaVoxel @ Ephtracy

# group
o 

# material
mtllib FarmIslandBig.mtl
usemtl palette

# normals
vn -1 0 0
vn 1 0 0
vn 0 0 1
vn 0 0 -1
vn 0 -1 0
vn 0 1 0

# texcoords
vt 0.783203 0.5
vt 0.787109 0.5
vt 0.791016 0.5
vt 0.794922 0.5
vt 0.798828 0.5
vt 0.802734 0.5
vt 0.806641 0.5

# verts
v -1.8 3.6 1.7
v -1.8 3.6 -1.8
v -1.8 3.8 1.7
v -1.8 3.8 -1.8
v -1.8 4 1.7
v -1.8 4 -1.8
v -1.6 3.3 1.5
v -1.6 3.3 -1.6
v -1.6 3.6 1.5
v -1.6 3.6 -1.6
v -1.4 2.9 1.3
v -1.4 2.9 -1.4
v -1.4 3.3 1.3
v -1.4 3.3 -1.4
v -1.2 2.4 1.1
v -1.2 2.4 -1.2
v -1.2 2.9 1.1
v -1.2 2.9 -1.2
v -1 1.8 0.9
v -1 1.8 -1
v -1 2.4 0.9
v -1 2.4 -1
v -0.8 1.2 0.7
v -0.8 1.2 -0.8
v -0.8 1.8 0.7
v -0.8 1.8 -0.8
v -0.6 0.6 0.5
v -0.6 0.6 -0.6
v -0.6 1.2 0.5
v -0.6 1.2 -0.6
v -0.4 0.2 0.3
v -0.4 0.2 -0.4
v -0.4 0.6 0.3
v -0.4 0.6 -0.4
v -0.3 0 0.2
v -0.3 0 -0.3
v -0.3 0.2 0.2
v -0.3 0.2 -0.3
v 0.2 0 0.2
v 0.2 0 -0.3
v 0.2 0.2 0.2
v 0.2 0.2 -0.3
v 0.3 0.2 0.3
v 0.3 0.2 -0.4
v 0.3 0.6 0.3
v 0.3 0.6 -0.4
v 0.5 0.6 0.5
v 0.5 0.6 -0.6
v 0.5 1.2 0.5
v 0.5 1.2 -0.6
v 0.7 1.2 0.7
v 0.7 1.2 -0.8
v 0.7 1.8 0.7
v 0.7 1.8 -0.8
v 0.9 1.8 0.9
v 0.9 1.8 -1
v 0.9 2.4 0.9
v 0.9 2.4 -1
v 1.1 2.4 1.1
v 1.1 2.4 -1.2
v 1.1 2.9 1.1
v 1.1 2.9 -1.2
v 1.3 2.9 1.3
v 1.3 2.9 -1.4
v 1.3 3.3 1.3
v 1.3 3.3 -1.4
v 1.5 3.3 1.5
v 1.5 3.3 -1.6
v 1.5 3.6 1.5
v 1.5 3.6 -1.6
v 1.7 3.6 1.7
v 1.7 3.6 -1.8
v 1.7 3.8 1.7
v 1.7 3.8 -1.8
v 1.7 4 1.7
v 1.7 4 -1.8
v -1.8 3.6 1.7
v -1.8 3.8 1.7
v -1.8 4 1.7
v 1.7 3.6 1.7
v 1.7 3.8 1.7
v 1.7 4 1.7
v -1.6 3.3 1.5
v -1.6 3.6 1.5
v 1.5 3.3 1.5
v 1.5 3.6 1.5
v -1.4 2.9 1.3
v -1.4 3.3 1.3
v 1.3 2.9 1.3
v 1.3 3.3 1.3
v -1.2 2.4 1.1
v -1.2 2.9 1.1
v 1.1 2.4 1.1
v 1.1 2.9 1.1
v -1 1.8 0.9
v -1 2.4 0.9
v 0.9 1.8 0.9
v 0.9 2.4 0.9
v -0.8 1.2 0.7
v -0.8 1.8 0.7
v 0.7 1.2 0.7
v 0.7 1.8 0.7
v -0.6 0.6 0.5
v -0.6 1.2 0.5
v 0.5 0.6 0.5
v 0.5 1.2 0.5
v -0.4 0.2 0.3
v -0.4 0.6 0.3
v 0.3 0.2 0.3
v 0.3 0.6 0.3
v -0.3 0 0.2
v -0.3 0.2 0.2
v 0.2 0 0.2
v 0.2 0.2 0.2
v -0.3 0 -0.3
v -0.3 0.2 -0.3
v 0.2 0 -0.3
v 0.2 0.2 -0.3
v -0.4 0.2 -0.4
v -0.4 0.6 -0.4
v 0.3 0.2 -0.4
v 0.3 0.6 -0.4
v -0.6 0.6 -0.6
v -0.6 1.2 -0.6
v 0.5 0.6 -0.6
v 0.5 1.2 -0.6
v -0.8 1.2 -0.8
v -0.8 1.8 -0.8
v 0.7 1.2 -0.8
v 0.7 1.8 -0.8
v -1 1.8 -1
v -1 2.4 -1
v 0.9 1.8 -1
v 0.9 2.4 -1
v -1.2 2.4 -1.2
v -1.2 2.9 -1.2
v 1.1 2.4 -1.2
v 1.1 2.9 -1.2
v -1.4 2.9 -1.4
v -1.4 3.3 -1.4
v 1.3 2.9 -1.4
v 1.3 3.3 -1.4
v -1.6 3.3 -1.6
v -1.6 3.6 -1.6
v 1.5 3.3 -1.6
v 1.5 3.6 -1.6
v -1.8 3.6 -1.8
v -1.8 3.8 -1.8
v -1.8 4 -1.8
v 1.7 3.6 -1.8
v 1.7 3.8 -1.8
v 1.7 4 -1.8
v -0.3 0 0.2
v 0.2 0 0.2
v -0.3 0 -0.3
v 0.2 0 -0.3
v -0.4 0.2 0.3
v 0.3 0.2 0.3
v -0.3 0.2 0.2
v 0.2 0.2 0.2
v -0.3 0.2 -0.3
v 0.2 0.2 -0.3
v -0.4 0.2 -0.4
v 0.3 0.2 -0.4
v -0.6 0.6 0.5
v 0.5 0.6 0.5
v -0.4 0.6 0.3
v 0.3 0.6 0.3
v -0.4 0.6 -0.4
v 0.3 0.6 -0.4
v -0.6 0.6 -0.6
v 0.5 0.6 -0.6
v -0.8 1.2 0.7
v 0.7 1.2 0.7
v -0.6 1.2 0.5
v 0.5 1.2 0.5
v -0.6 1.2 -0.6
v 0.5 1.2 -0.6
v -0.8 1.2 -0.8
v 0.7 1.2 -0.8
v -1 1.8 0.9
v 0.9 1.8 0.9
v -0.8 1.8 0.7
v 0.7 1.8 0.7
v -0.8 1.8 -0.8
v 0.7 1.8 -0.8
v -1 1.8 -1
v 0.9 1.8 -1
v -1.2 2.4 1.1
v 1.1 2.4 1.1
v -1 2.4 0.9
v 0.9 2.4 0.9
v -1 2.4 -1
v 0.9 2.4 -1
v -1.2 2.4 -1.2
v 1.1 2.4 -1.2
v -1.4 2.9 1.3
v 1.3 2.9 1.3
v -1.2 2.9 1.1
v 1.1 2.9 1.1
v -1.2 2.9 -1.2
v 1.1 2.9 -1.2
v -1.4 2.9 -1.4
v 1.3 2.9 -1.4
v -1.6 3.3 1.5
v 1.5 3.3 1.5
v -1.4 3.3 1.3
v 1.3 3.3 1.3
v -1.4 3.3 -1.4
v 1.3 3.3 -1.4
v -1.6 3.3 -1.6
v 1.5 3.3 -1.6
v -1.8 3.6 1.7
v 1.7 3.6 1.7
v -1.6 3.6 1.5
v 1.5 3.6 1.5
v -1.6 3.6 -1.6
v 1.5 3.6 -1.6
v -1.8 3.6 -1.8
v 1.7 3.6 -1.8
v -1.8 4 1.7
v 1.7 4 1.7
v -1.8 4 -1.8
v 1.7 4 -1.8

# faces
f 3/2/1 2/2/1 1/2/1
f 4/2/1 2/2/1 3/2/1
f 5/1/1 4/1/1 3/1/1
f 6/1/1 4/1/1 5/1/1
f 9/2/1 8/2/1 7/2/1
f 10/2/1 8/2/1 9/2/1
f 13/3/1 12/3/1 11/3/1
f 14/3/1 12/3/1 13/3/1
f 17/4/1 16/4/1 15/4/1
f 18/4/1 16/4/1 17/4/1
f 21/4/1 20/4/1 19/4/1
f 22/4/1 20/4/1 21/4/1
f 25/5/1 24/5/1 23/5/1
f 26/5/1 24/5/1 25/5/1
f 29/6/1 28/6/1 27/6/1
f 30/6/1 28/6/1 29/6/1
f 33/7/1 32/7/1 31/7/1
f 34/7/1 32/7/1 33/7/1
f 37/7/1 36/7/1 35/7/1
f 38/7/1 36/7/1 37/7/1
f 39/7/2 40/7/2 41/7/2
f 41/7/2 40/7/2 42/7/2
f 43/7/2 44/7/2 45/7/2
f 45/7/2 44/7/2 46/7/2
f 47/6/2 48/6/2 49/6/2
f 49/6/2 48/6/2 50/6/2
f 51/5/2 52/5/2 53/5/2
f 53/5/2 52/5/2 54/5/2
f 55/4/2 56/4/2 57/4/2
f 57/4/2 56/4/2 58/4/2
f 59/4/2 60/4/2 61/4/2
f 61/4/2 60/4/2 62/4/2
f 63/3/2 64/3/2 65/3/2
f 65/3/2 64/3/2 66/3/2
f 67/2/2 68/2/2 69/2/2
f 69/2/2 68/2/2 70/2/2
f 71/2/2 72/2/2 73/2/2
f 73/2/2 72/2/2 74/2/2
f 73/1/2 74/1/2 75/1/2
f 75/1/2 74/1/2 76/1/2
f 80/2/3 78/2/3 77/2/3
f 81/1/3 79/1/3 78/1/3
f 81/2/3 78/2/3 80/2/3
f 82/1/3 79/1/3 81/1/3
f 85/2/3 84/2/3 83/2/3
f 86/2/3 84/2/3 85/2/3
f 89/3/3 88/3/3 87/3/3
f 90/3/3 88/3/3 89/3/3
f 93/4/3 92/4/3 91/4/3
f 94/4/3 92/4/3 93/4/3
f 97/4/3 96/4/3 95/4/3
f 98/4/3 96/4/3 97/4/3
f 101/5/3 100/5/3 99/5/3
f 102/5/3 100/5/3 101/5/3
f 105/6/3 104/6/3 103/6/3
f 106/6/3 104/6/3 105/6/3
f 109/7/3 108/7/3 107/7/3
f 110/7/3 108/7/3 109/7/3
f 113/7/3 112/7/3 111/7/3
f 114/7/3 112/7/3 113/7/3
f 115/7/4 116/7/4 117/7/4
f 117/7/4 116/7/4 118/7/4
f 119/7/4 120/7/4 121/7/4
f 121/7/4 120/7/4 122/7/4
f 123/6/4 124/6/4 125/6/4
f 125/6/4 124/6/4 126/6/4
f 127/5/4 128/5/4 129/5/4
f 129/5/4 128/5/4 130/5/4
f 131/4/4 132/4/4 133/4/4
f 133/4/4 132/4/4 134/4/4
f 135/4/4 136/4/4 137/4/4
f 137/4/4 136/4/4 138/4/4
f 139/3/4 140/3/4 141/3/4
f 141/3/4 140/3/4 142/3/4
f 143/2/4 144/2/4 145/2/4
f 145/2/4 144/2/4 146/2/4
f 147/2/4 148/2/4 150/2/4
f 148/1/4 149/1/4 151/1/4
f 150/2/4 148/2/4 151/2/4
f 151/1/4 149/1/4 152/1/4
f 155/7/5 154/7/5 153/7/5
f 156/7/5 154/7/5 155/7/5
f 159/7/5 158/7/5 157/7/5
f 160/7/5 158/7/5 159/7/5
f 161/7/5 159/7/5 157/7/5
f 162/7/5 158/7/5 160/7/5
f 163/7/5 161/7/5 157/7/5
f 163/7/5 162/7/5 161/7/5
f 164/7/5 158/7/5 162/7/5
f 164/7/5 162/7/5 163/7/5
f 167/6/5 166/6/5 165/6/5
f 168/6/5 166/6/5 167/6/5
f 169/6/5 167/6/5 165/6/5
f 170/6/5 166/6/5 168/6/5
f 171/6/5 169/6/5 165/6/5
f 171/6/5 170/6/5 169/6/5
f 172/6/5 166/6/5 170/6/5
f 172/6/5 170/6/5 171/6/5
f 175/5/5 174/5/5 173/5/5
f 176/5/5 174/5/5 175/5/5
f 177/5/5 175/5/5 173/5/5
f 178/5/5 174/5/5 176/5/5
f 179/5/5 177/5/5 173/5/5
f 179/5/5 178/5/5 177/5/5
f 180/5/5 174/5/5 178/5/5
f 180/5/5 178/5/5 179/5/5
f 183/4/5 182/4/5 181/4/5
f 184/4/5 182/4/5 183/4/5
f 185/4/5 183/4/5 181/4/5
f 186/4/5 182/4/5 184/4/5
f 187/4/5 185/4/5 181/4/5
f 187/4/5 186/4/5 185/4/5
f 188/4/5 182/4/5 186/4/5
f 188/4/5 186/4/5 187/4/5
f 191/4/5 190/4/5 189/4/5
f 192/4/5 190/4/5 191/4/5
f 193/4/5 191/4/5 189/4/5
f 194/4/5 190/4/5 192/4/5
f 195/4/5 193/4/5 189/4/5
f 195/4/5 194/4/5 193/4/5
f 196/4/5 190/4/5 194/4/5
f 196/4/5 194/4/5 195/4/5
f 199/3/5 198/3/5 197/3/5
f 200/3/5 198/3/5 199/3/5
f 201/3/5 199/3/5 197/3/5
f 202/3/5 198/3/5 200/3/5
f 203/3/5 201/3/5 197/3/5
f 203/3/5 202/3/5 201/3/5
f 204/3/5 198/3/5 202/3/5
f 204/3/5 202/3/5 203/3/5
f 207/2/5 206/2/5 205/2/5
f 208/2/5 206/2/5 207/2/5
f 209/2/5 207/2/5 205/2/5
f 210/2/5 206/2/5 208/2/5
f 211/2/5 209/2/5 205/2/5
f 211/2/5 210/2/5 209/2/5
f 212/2/5 206/2/5 210/2/5
f 212/2/5 210/2/5 211/2/5
f 215/2/5 214/2/5 213/2/5
f 216/2/5 214/2/5 215/2/5
f 217/2/5 215/2/5 213/2/5
f 218/2/5 214/2/5 216/2/5
f 219/2/5 217/2/5 213/2/5
f 219/2/5 218/2/5 217/2/5
f 220/2/5 214/2/5 218/2/5
f 220/2/5 218/2/5 219/2/5
f 221/1/6 222/1/6 223/1/6
f 223/1/6 222/1/6 224/1/6
