# MagicaVoxel @ Ephtracy

# group
o 

# material
mtllib WizardHat.mtl
usemtl palette

# normals
vn -1 0 0
vn 1 0 0
vn 0 0 1
vn 0 0 -1
vn 0 -1 0
vn 0 1 0

# texcoords
vt 0.595703 0.5
vt 0.626953 0.5
vt 0.630859 0.5
vt 0.634766 0.5

# verts
v -0.3 0 0.1
v -0.3 0 -0.2
v -0.3 0.1 0.1
v -0.3 0.1 -0.2
v -0.2 0 0.2
v -0.2 0 0.1
v -0.2 0 -0.2
v -0.2 0 -0.3
v -0.2 0.1 0.1
v -0.2 0.1 -0.2
v -0.2 0.3 0.2
v -0.2 0.3 -0.3
v -0.1 0 0.3
v -0.1 0 0.2
v -0.1 0 -0.3
v -0.1 0 -0.4
v -0.1 0.1 0.3
v -0.1 0.1 0.2
v -0.1 0.1 -0.3
v -0.1 0.1 -0.4
v -0.1 0.2 0.3
v -0.1 0.2 0.2
v -0.1 0.3 0.3
v -0.1 0.3 0.2
v -0.1 0.3 -0.1
v -0.1 0.3 -0.2
v -0.1 0.4 0.2
v -0.1 0.4 0.1
v -0.1 0.4 -0.1
v -0.1 0.5 0.1
v -0.1 0.5 -0.2
v 0 0.1 0.3
v 0 0.1 0.2
v 0 0.2 0.3
v 0 0.2 0.2
v 0 0.3 0.3
v 0 0.3 0.2
v 0 0.4 0.3
v 0 0.4 0.2
v 0 0.5 0.1
v 0 0.5 0
v 0 0.5 -0.1
v 0 0.6 0.1
v 0 0.6 0
v 0 0.6 -0.1
v 0 0.7 0
v 0 0.7 -0.1
v 0 0.8 0
v 0 0.8 -0.1
v 0.1 0.1 0.3
v 0.1 0.1 0.2
v 0.1 0.2 0.3
v 0.1 0.2 0.2
v 0.1 0.3 0.3
v 0.1 0.3 0.2
v 0.1 0.4 0.3
v 0.1 0.4 0.2
v 0.1 0.6 0
v 0.1 0.6 -0.1
v 0.1 0.7 0
v 0.1 0.7 -0.1
v 0.1 0.8 0
v 0.1 0.8 -0.1
v 0.2 0 0.3
v 0.2 0 0.2
v 0.2 0 -0.3
v 0.2 0 -0.4
v 0.2 0.1 0.3
v 0.2 0.1 0.2
v 0.2 0.1 -0.3
v 0.2 0.1 -0.4
v 0.2 0.2 0.3
v 0.2 0.2 0.2
v 0.2 0.3 0.3
v 0.2 0.3 0.2
v 0.2 0.3 -0.1
v 0.2 0.3 -0.2
v 0.2 0.4 0.2
v 0.2 0.4 0.1
v 0.2 0.4 -0.1
v 0.2 0.5 -0.1
v 0.2 0.5 -0.2
v 0.2 0.6 0.1
v 0.2 0.6 -0.1
v 0.3 0 0.2
v 0.3 0 0.1
v 0.3 0 -0.2
v 0.3 0 -0.3
v 0.3 0.1 0.1
v 0.3 0.1 -0.2
v 0.3 0.3 0.2
v 0.3 0.3 -0.3
v 0.4 0 0.1
v 0.4 0 -0.2
v 0.4 0.1 0.1
v 0.4 0.1 -0.2
v -0.1 0 0.3
v -0.1 0.1 0.3
v -0.1 0.2 0.3
v -0.1 0.3 0.3
v 0 0.1 0.3
v 0 0.2 0.3
v 0 0.3 0.3
v 0 0.4 0.3
v 0.1 0.1 0.3
v 0.1 0.2 0.3
v 0.1 0.3 0.3
v 0.1 0.4 0.3
v 0.2 0 0.3
v 0.2 0.1 0.3
v 0.2 0.2 0.3
v 0.2 0.3 0.3
v -0.2 0 0.2
v -0.2 0.3 0.2
v -0.1 0 0.2
v -0.1 0.1 0.2
v -0.1 0.2 0.2
v -0.1 0.3 0.2
v -0.1 0.4 0.2
v 0 0.1 0.2
v 0 0.2 0.2
v 0 0.3 0.2
v 0 0.4 0.2
v 0.1 0.1 0.2
v 0.1 0.2 0.2
v 0.1 0.3 0.2
v 0.1 0.4 0.2
v 0.2 0 0.2
v 0.2 0.1 0.2
v 0.2 0.2 0.2
v 0.2 0.3 0.2
v 0.2 0.4 0.2
v 0.3 0 0.2
v 0.3 0.3 0.2
v -0.3 0 0.1
v -0.3 0.1 0.1
v -0.2 0 0.1
v -0.2 0.1 0.1
v -0.1 0.4 0.1
v -0.1 0.5 0.1
v 0 0.4 0.1
v 0 0.5 0.1
v 0 0.6 0.1
v 0.1 0.4 0.1
v 0.1 0.6 0.1
v 0.2 0.4 0.1
v 0.2 0.6 0.1
v 0.3 0 0.1
v 0.3 0.1 0.1
v 0.4 0 0.1
v 0.4 0.1 0.1
v 0 0.6 0
v 0 0.7 0
v 0 0.8 0
v 0.1 0.6 0
v 0.1 0.7 0
v 0.1 0.8 0
v 0 0.5 -0.1
v 0 0.6 -0.1
v 0 0.7 -0.1
v 0 0.8 -0.1
v 0.1 0.6 -0.1
v 0.1 0.7 -0.1
v 0.1 0.8 -0.1
v 0.2 0.5 -0.1
v 0.2 0.6 -0.1
v -0.3 0 -0.2
v -0.3 0.1 -0.2
v -0.2 0 -0.2
v -0.2 0.1 -0.2
v -0.1 0.3 -0.2
v -0.1 0.5 -0.2
v 0.2 0.3 -0.2
v 0.2 0.5 -0.2
v 0.3 0 -0.2
v 0.3 0.1 -0.2
v 0.4 0 -0.2
v 0.4 0.1 -0.2
v -0.2 0 -0.3
v -0.2 0.3 -0.3
v -0.1 0 -0.3
v -0.1 0.1 -0.3
v 0.2 0 -0.3
v 0.2 0.1 -0.3
v 0.3 0 -0.3
v 0.3 0.3 -0.3
v -0.1 0 -0.4
v -0.1 0.1 -0.4
v 0.2 0 -0.4
v 0.2 0.1 -0.4
v -0.1 0 0.3
v 0.2 0 0.3
v -0.2 0 0.2
v -0.1 0 0.2
v 0.2 0 0.2
v 0.3 0 0.2
v -0.3 0 0.1
v -0.2 0 0.1
v -0.1 0 0.1
v 0.2 0 0.1
v 0.3 0 0.1
v 0.4 0 0.1
v -0.3 0 -0.2
v -0.2 0 -0.2
v -0.1 0 -0.2
v 0.2 0 -0.2
v 0.3 0 -0.2
v 0.4 0 -0.2
v -0.2 0 -0.3
v -0.1 0 -0.3
v 0.2 0 -0.3
v 0.3 0 -0.3
v -0.1 0 -0.4
v 0.2 0 -0.4
v -0.1 0.2 0.3
v 0 0.2 0.3
v 0.1 0.2 0.3
v 0.2 0.2 0.3
v -0.1 0.2 0.2
v 0 0.2 0.2
v 0.1 0.2 0.2
v 0.2 0.2 0.2
v -0.1 0.1 0.3
v 0 0.1 0.3
v 0.1 0.1 0.3
v 0.2 0.1 0.3
v -0.1 0.1 0.2
v 0 0.1 0.2
v 0.1 0.1 0.2
v 0.2 0.1 0.2
v -0.3 0.1 0.1
v -0.2 0.1 0.1
v 0.3 0.1 0.1
v 0.4 0.1 0.1
v -0.3 0.1 -0.2
v -0.2 0.1 -0.2
v 0.3 0.1 -0.2
v 0.4 0.1 -0.2
v -0.1 0.1 -0.3
v 0.2 0.1 -0.3
v -0.1 0.1 -0.4
v 0.2 0.1 -0.4
v -0.1 0.3 0.3
v 0 0.3 0.3
v 0.1 0.3 0.3
v 0.2 0.3 0.3
v -0.2 0.3 0.2
v -0.1 0.3 0.2
v 0 0.3 0.2
v 0.1 0.3 0.2
v 0.2 0.3 0.2
v 0.3 0.3 0.2
v -0.1 0.3 -0.1
v 0.2 0.3 -0.1
v -0.1 0.3 -0.2
v 0.2 0.3 -0.2
v -0.2 0.3 -0.3
v 0.3 0.3 -0.3
v 0 0.4 0.3
v 0.1 0.4 0.3
v -0.1 0.4 0.2
v 0 0.4 0.2
v 0.1 0.4 0.2
v 0.2 0.4 0.2
v -0.1 0.4 0.1
v 0 0.4 0.1
v 0.1 0.4 0.1
v 0.2 0.4 0.1
v -0.1 0.5 0.1
v 0 0.5 0.1
v 0 0.5 0
v 0 0.5 -0.1
v 0.2 0.5 -0.1
v -0.1 0.5 -0.2
v 0.2 0.5 -0.2
v 0 0.6 0.1
v 0.1 0.6 0.1
v 0.2 0.6 0.1
v 0 0.6 0
v 0.1 0.6 0
v 0.1 0.6 -0.1
v 0.2 0.6 -0.1
v 0 0.8 0
v 0.1 0.8 0
v 0 0.8 -0.1
v 0.1 0.8 -0.1

# faces
f 3/1/1 2/1/1 1/1/1
f 4/1/1 2/1/1 3/1/1
f 9/1/1 6/1/1 5/1/1
f 10/1/1 8/1/1 7/1/1
f 11/1/1 9/1/1 5/1/1
f 11/1/1 10/1/1 9/1/1
f 12/1/1 8/1/1 10/1/1
f 12/1/1 10/1/1 11/1/1
f 17/1/1 14/1/1 13/1/1
f 18/1/1 14/1/1 17/1/1
f 19/1/1 16/1/1 15/1/1
f 20/1/1 16/1/1 19/1/1
f 23/4/1 22/4/1 21/4/1
f 24/4/1 22/4/1 23/4/1
f 27/3/1 25/3/1 24/3/1
f 28/3/1 25/3/1 27/3/1
f 29/1/1 26/1/1 25/1/1
f 29/3/1 25/3/1 28/3/1
f 30/1/1 29/1/1 28/1/1
f 31/1/1 26/1/1 29/1/1
f 31/1/1 29/1/1 30/1/1
f 34/4/1 33/4/1 32/4/1
f 35/4/1 33/4/1 34/4/1
f 38/4/1 37/4/1 36/4/1
f 39/4/1 37/4/1 38/4/1
f 43/3/1 41/3/1 40/3/1
f 44/1/1 42/1/1 41/1/1
f 44/3/1 41/3/1 43/3/1
f 45/1/1 42/1/1 44/1/1
f 46/3/1 45/3/1 44/3/1
f 47/3/1 45/3/1 46/3/1
f 48/4/1 47/4/1 46/4/1
f 49/4/1 47/4/1 48/4/1
f 50/4/2 51/4/2 52/4/2
f 52/4/2 51/4/2 53/4/2
f 54/4/2 55/4/2 56/4/2
f 56/4/2 55/4/2 57/4/2
f 58/3/2 59/3/2 60/3/2
f 60/3/2 59/3/2 61/3/2
f 60/4/2 61/4/2 62/4/2
f 62/4/2 61/4/2 63/4/2
f 64/1/2 65/1/2 68/1/2
f 68/1/2 65/1/2 69/1/2
f 66/1/2 67/1/2 70/1/2
f 70/1/2 67/1/2 71/1/2
f 72/4/2 73/4/2 74/4/2
f 74/4/2 73/4/2 75/4/2
f 75/3/2 76/3/2 78/3/2
f 78/3/2 76/3/2 79/3/2
f 76/1/2 77/1/2 80/1/2
f 79/3/2 76/3/2 80/3/2
f 80/1/2 77/1/2 81/1/2
f 79/1/2 80/1/2 81/1/2
f 81/1/2 77/1/2 82/1/2
f 79/1/2 81/1/2 83/1/2
f 83/1/2 81/1/2 84/1/2
f 85/1/2 86/1/2 89/1/2
f 87/1/2 88/1/2 90/1/2
f 85/1/2 89/1/2 91/1/2
f 89/1/2 90/1/2 91/1/2
f 90/1/2 88/1/2 92/1/2
f 91/1/2 90/1/2 92/1/2
f 93/1/2 94/1/2 95/1/2
f 95/1/2 94/1/2 96/1/2
f 101/1/3 98/1/3 97/1/3
f 102/4/3 100/4/3 99/4/3
f 103/4/3 100/4/3 102/4/3
f 105/1/3 101/1/3 97/1/3
f 105/4/3 104/4/3 103/4/3
f 105/4/3 103/4/3 102/4/3
f 105/4/3 102/4/3 101/4/3
f 106/4/3 104/4/3 105/4/3
f 107/4/3 104/4/3 106/4/3
f 108/4/3 104/4/3 107/4/3
f 109/1/3 105/1/3 97/1/3
f 110/1/3 105/1/3 109/1/3
f 111/4/3 107/4/3 106/4/3
f 112/4/3 107/4/3 111/4/3
f 115/1/3 114/1/3 113/1/3
f 116/1/3 114/1/3 115/1/3
f 117/1/3 114/1/3 116/1/3
f 118/1/3 114/1/3 117/1/3
f 120/3/3 117/3/3 116/3/3
f 121/3/3 117/3/3 120/3/3
f 122/3/3 119/3/3 118/3/3
f 123/3/3 119/3/3 122/3/3
f 129/3/3 125/3/3 124/3/3
f 130/3/3 125/3/3 129/3/3
f 131/3/3 127/3/3 126/3/3
f 132/3/3 127/3/3 131/3/3
f 133/1/3 130/1/3 129/1/3
f 133/1/3 129/1/3 128/1/3
f 133/1/3 131/1/3 130/1/3
f 134/1/3 131/1/3 133/1/3
f 137/1/3 136/1/3 135/1/3
f 138/1/3 136/1/3 137/1/3
f 141/1/3 140/1/3 139/1/3
f 142/1/3 140/1/3 141/1/3
f 144/3/3 142/3/3 141/3/3
f 144/3/3 143/3/3 142/3/3
f 145/3/3 143/3/3 144/3/3
f 146/1/3 145/1/3 144/1/3
f 147/1/3 145/1/3 146/1/3
f 150/1/3 149/1/3 148/1/3
f 151/1/3 149/1/3 150/1/3
f 155/3/3 153/3/3 152/3/3
f 156/4/3 154/4/3 153/4/3
f 156/3/3 153/3/3 155/3/3
f 157/4/3 154/4/3 156/4/3
f 158/1/4 159/1/4 162/1/4
f 159/3/4 160/3/4 162/3/4
f 160/4/4 161/4/4 163/4/4
f 162/3/4 160/3/4 163/3/4
f 163/4/4 161/4/4 164/4/4
f 158/1/4 162/1/4 165/1/4
f 165/1/4 162/1/4 166/1/4
f 167/1/4 168/1/4 169/1/4
f 169/1/4 168/1/4 170/1/4
f 171/1/4 172/1/4 173/1/4
f 173/1/4 172/1/4 174/1/4
f 175/1/4 176/1/4 177/1/4
f 177/1/4 176/1/4 178/1/4
f 179/1/4 180/1/4 181/1/4
f 181/1/4 180/1/4 182/1/4
f 182/1/4 180/1/4 184/1/4
f 183/1/4 184/1/4 185/1/4
f 184/1/4 180/1/4 186/1/4
f 185/1/4 184/1/4 186/1/4
f 187/1/4 188/1/4 189/1/4
f 189/1/4 188/1/4 190/1/4
f 194/1/5 192/1/5 191/1/5
f 195/1/5 192/1/5 194/1/5
f 198/1/5 194/1/5 193/1/5
f 199/2/5 195/2/5 194/2/5
f 199/1/5 194/1/5 198/1/5
f 200/1/5 196/1/5 195/1/5
f 200/2/5 195/2/5 199/2/5
f 201/1/5 196/1/5 200/1/5
f 203/1/5 198/1/5 197/1/5
f 204/2/5 199/2/5 198/2/5
f 204/1/5 198/1/5 203/1/5
f 204/2/5 200/2/5 199/2/5
f 204/2/5 201/2/5 200/2/5
f 205/2/5 201/2/5 204/2/5
f 206/2/5 201/2/5 205/2/5
f 207/1/5 202/1/5 201/1/5
f 207/2/5 201/2/5 206/2/5
f 208/1/5 202/1/5 207/1/5
f 209/1/5 205/1/5 204/1/5
f 210/2/5 206/2/5 205/2/5
f 210/1/5 205/1/5 209/1/5
f 211/1/5 207/1/5 206/1/5
f 211/2/5 206/2/5 210/2/5
f 212/1/5 207/1/5 211/1/5
f 213/1/5 211/1/5 210/1/5
f 214/1/5 211/1/5 213/1/5
f 219/4/5 216/4/5 215/4/5
f 220/4/5 216/4/5 219/4/5
f 221/4/5 218/4/5 217/4/5
f 222/4/5 218/4/5 221/4/5
f 223/1/6 224/1/6 227/1/6
f 227/1/6 224/1/6 228/1/6
f 225/1/6 226/1/6 229/1/6
f 229/1/6 226/1/6 230/1/6
f 231/1/6 232/1/6 235/1/6
f 235/1/6 232/1/6 236/1/6
f 233/1/6 234/1/6 237/1/6
f 237/1/6 234/1/6 238/1/6
f 239/1/6 240/1/6 241/1/6
f 241/1/6 240/1/6 242/1/6
f 243/4/6 244/4/6 248/4/6
f 248/4/6 244/4/6 249/4/6
f 245/4/6 246/4/6 250/4/6
f 250/4/6 246/4/6 251/4/6
f 247/1/6 248/1/6 253/1/6
f 251/1/6 252/1/6 254/1/6
f 247/1/6 253/1/6 255/1/6
f 254/1/6 252/1/6 256/1/6
f 247/1/6 255/1/6 257/1/6
f 255/1/6 256/1/6 257/1/6
f 256/1/6 252/1/6 258/1/6
f 257/1/6 256/1/6 258/1/6
f 259/4/6 260/4/6 262/4/6
f 262/4/6 260/4/6 263/4/6
f 261/3/6 262/3/6 265/3/6
f 263/3/6 264/3/6 265/3/6
f 262/3/6 263/3/6 265/3/6
f 265/3/6 264/3/6 266/3/6
f 266/3/6 264/3/6 267/3/6
f 267/3/6 264/3/6 268/3/6
f 269/1/6 270/1/6 271/1/6
f 269/1/6 271/1/6 272/1/6
f 269/1/6 272/1/6 274/1/6
f 272/1/6 273/1/6 274/1/6
f 274/1/6 273/1/6 275/1/6
f 276/3/6 277/3/6 279/3/6
f 277/1/6 278/1/6 280/1/6
f 279/3/6 277/3/6 280/3/6
f 280/1/6 278/1/6 281/1/6
f 281/1/6 278/1/6 282/1/6
f 283/4/6 284/4/6 285/4/6
f 285/4/6 284/4/6 286/4/6
