# MagicaVoxel @ Ephtracy

# group
o 

# material
mtllib Chicken.mtl
usemtl palette

# normals
vn -1 0 0
vn 1 0 0
vn 0 0 1
vn 0 0 -1
vn 0 -1 0
vn 0 1 0

# texcoords
vt 0.0449219 0.5
vt 0.146484 0.5
vt 0.373047 0.5
vt 0.845703 0.5
vt 0.962891 0.5
vt 0.994141 0.5

# verts
v -0.4 0.7 0.1
v -0.4 0.7 0
v -0.4 0.8 0.1
v -0.4 0.8 0
v -0.3 0.5 0.1
v -0.3 0.5 0
v -0.3 0.6 0.2
v -0.3 0.6 0.1
v -0.3 0.6 0
v -0.3 0.6 -0.1
v -0.3 0.7 0.2
v -0.3 0.7 0.1
v -0.3 0.7 0
v -0.3 0.7 -0.1
v -0.3 0.8 0.2
v -0.3 0.8 0.1
v -0.3 0.8 0
v -0.3 0.8 -0.1
v -0.3 0.9 0.2
v -0.3 0.9 -0.1
v -0.2 0.9 0.1
v -0.2 0.9 0
v -0.2 1 0.1
v -0.2 1 0
v -0.1 0 0.3
v -0.1 0 0.2
v -0.1 0 -0.1
v -0.1 0 -0.2
v -0.1 0.1 0.3
v -0.1 0.1 0.2
v -0.1 0.1 -0.1
v -0.1 0.1 -0.2
v -0.1 0.3 0.3
v -0.1 0.3 -0.2
v -0.1 0.6 0.3
v -0.1 0.6 0.2
v -0.1 0.6 -0.1
v -0.1 0.6 -0.2
v 0 0.1 0.3
v 0 0.1 0.2
v 0 0.1 -0.1
v 0 0.1 -0.2
v 0 0.3 0.3
v 0 0.3 0.2
v 0 0.3 -0.1
v 0 0.3 -0.2
v 0.2 0.6 0.1
v 0.2 0.6 0
v 0.2 0.7 0.1
v 0.2 0.7 0
v -0.2 0.5 0.1
v -0.2 0.5 0
v -0.2 0.6 0.1
v -0.2 0.6 0
v 0 0.6 0.2
v 0 0.6 0.1
v 0 0.6 0
v 0 0.6 -0.1
v 0 0.9 0.2
v 0 0.9 0.1
v 0 0.9 0
v 0 0.9 -0.1
v 0 1 0.1
v 0 1 0
v 0.1 0.1 0.3
v 0.1 0.1 0.2
v 0.1 0.1 -0.1
v 0.1 0.1 -0.2
v 0.1 0.3 0.3
v 0.1 0.3 0.2
v 0.1 0.3 -0.1
v 0.1 0.3 -0.2
v 0.2 0 0.3
v 0.2 0 0.2
v 0.2 0 -0.1
v 0.2 0 -0.2
v 0.2 0.1 0.3
v 0.2 0.1 0.2
v 0.2 0.1 -0.1
v 0.2 0.1 -0.2
v 0.3 0.3 0.3
v 0.3 0.3 -0.2
v 0.3 0.4 0.1
v 0.3 0.4 0
v 0.3 0.6 0.3
v 0.3 0.6 0.1
v 0.3 0.6 0
v 0.3 0.6 -0.2
v 0.4 0.4 0.1
v 0.4 0.4 0
v 0.4 0.7 0.1
v 0.4 0.7 0
v -0.1 0 0.3
v -0.1 0.1 0.3
v -0.1 0.3 0.3
v -0.1 0.6 0.3
v 0 0.1 0.3
v 0 0.3 0.3
v 0.1 0.1 0.3
v 0.1 0.3 0.3
v 0.2 0 0.3
v 0.2 0.1 0.3
v 0.3 0.3 0.3
v 0.3 0.6 0.3
v -0.3 0.6 0.2
v -0.3 0.7 0.2
v -0.3 0.8 0.2
v -0.3 0.9 0.2
v -0.2 0.7 0.2
v -0.2 0.8 0.2
v -0.1 0.6 0.2
v 0 0.6 0.2
v 0 0.9 0.2
v -0.4 0.7 0.1
v -0.4 0.8 0.1
v -0.3 0.5 0.1
v -0.3 0.6 0.1
v -0.3 0.7 0.1
v -0.3 0.8 0.1
v -0.2 0.5 0.1
v -0.2 0.6 0.1
v -0.2 0.9 0.1
v -0.2 1 0.1
v 0 0.9 0.1
v 0 1 0.1
v 0.2 0.6 0.1
v 0.2 0.7 0.1
v 0.3 0.4 0.1
v 0.3 0.6 0.1
v 0.4 0.4 0.1
v 0.4 0.7 0.1
v -0.1 0 -0.1
v -0.1 0.1 -0.1
v 0 0.1 -0.1
v 0 0.3 -0.1
v 0.1 0.1 -0.1
v 0.1 0.3 -0.1
v 0.2 0 -0.1
v 0.2 0.1 -0.1
v -0.1 0 0.2
v -0.1 0.1 0.2
v 0 0.1 0.2
v 0 0.3 0.2
v 0.1 0.1 0.2
v 0.1 0.3 0.2
v 0.2 0 0.2
v 0.2 0.1 0.2
v -0.4 0.7 0
v -0.4 0.8 0
v -0.3 0.5 0
v -0.3 0.6 0
v -0.3 0.7 0
v -0.3 0.8 0
v -0.2 0.5 0
v -0.2 0.6 0
v -0.2 0.9 0
v -0.2 1 0
v 0 0.9 0
v 0 1 0
v 0.2 0.6 0
v 0.2 0.7 0
v 0.3 0.4 0
v 0.3 0.6 0
v 0.4 0.4 0
v 0.4 0.7 0
v -0.3 0.6 -0.1
v -0.3 0.7 -0.1
v -0.3 0.8 -0.1
v -0.3 0.9 -0.1
v -0.2 0.7 -0.1
v -0.2 0.8 -0.1
v -0.1 0.6 -0.1
v 0 0.6 -0.1
v 0 0.9 -0.1
v -0.1 0 -0.2
v -0.1 0.1 -0.2
v -0.1 0.3 -0.2
v -0.1 0.6 -0.2
v 0 0.1 -0.2
v 0 0.3 -0.2
v 0.1 0.1 -0.2
v 0.1 0.3 -0.2
v 0.2 0 -0.2
v 0.2 0.1 -0.2
v 0.3 0.3 -0.2
v 0.3 0.6 -0.2
v -0.1 0 0.3
v 0.2 0 0.3
v -0.1 0 0.2
v 0.2 0 0.2
v -0.1 0 -0.1
v 0.2 0 -0.1
v -0.1 0 -0.2
v 0.2 0 -0.2
v -0.1 0.3 0.3
v 0 0.3 0.3
v 0.1 0.3 0.3
v 0.3 0.3 0.3
v 0 0.3 0.2
v 0.1 0.3 0.2
v 0 0.3 -0.1
v 0.1 0.3 -0.1
v -0.1 0.3 -0.2
v 0 0.3 -0.2
v 0.1 0.3 -0.2
v 0.3 0.3 -0.2
v 0.3 0.4 0.1
v 0.4 0.4 0.1
v 0.3 0.4 0
v 0.4 0.4 0
v -0.3 0.5 0.1
v -0.2 0.5 0.1
v -0.3 0.5 0
v -0.2 0.5 0
v -0.3 0.6 0.2
v -0.1 0.6 0.2
v -0.3 0.6 0.1
v -0.2 0.6 0.1
v -0.3 0.6 0
v -0.2 0.6 0
v -0.3 0.6 -0.1
v -0.1 0.6 -0.1
v -0.4 0.7 0.1
v -0.3 0.7 0.1
v -0.4 0.7 0
v -0.3 0.7 0
v -0.1 0.1 0.3
v 0 0.1 0.3
v 0.1 0.1 0.3
v 0.2 0.1 0.3
v -0.1 0.1 0.2
v 0 0.1 0.2
v 0.1 0.1 0.2
v 0.2 0.1 0.2
v -0.1 0.1 -0.1
v 0 0.1 -0.1
v 0.1 0.1 -0.1
v 0.2 0.1 -0.1
v -0.1 0.1 -0.2
v 0 0.1 -0.2
v 0.1 0.1 -0.2
v 0.2 0.1 -0.2
v -0.1 0.6 0.3
v 0.3 0.6 0.3
v -0.1 0.6 0.2
v 0 0.6 0.2
v 0 0.6 0.1
v 0.2 0.6 0.1
v 0.3 0.6 0.1
v 0 0.6 0
v 0.2 0.6 0
v 0.3 0.6 0
v -0.1 0.6 -0.1
v 0 0.6 -0.1
v -0.1 0.6 -0.2
v 0.3 0.6 -0.2
v 0.2 0.7 0.1
v 0.4 0.7 0.1
v 0.2 0.7 0
v 0.4 0.7 0
v -0.4 0.8 0.1
v -0.3 0.8 0.1
v -0.4 0.8 0
v -0.3 0.8 0
v -0.3 0.9 0.2
v 0 0.9 0.2
v -0.2 0.9 0.1
v 0 0.9 0.1
v -0.2 0.9 0
v 0 0.9 0
v -0.3 0.9 -0.1
v 0 0.9 -0.1
v -0.2 1 0.1
v 0 1 0.1
v -0.2 1 0
v 0 1 0

# faces
f 3/4/1 2/4/1 1/4/1
f 4/4/1 2/4/1 3/4/1
f 8/4/1 6/4/1 5/4/1
f 9/4/1 6/4/1 8/4/1
f 11/1/1 8/1/1 7/1/1
f 11/1/1 10/1/1 9/1/1
f 11/1/1 9/1/1 8/1/1
f 12/1/1 10/1/1 11/1/1
f 13/1/1 10/1/1 12/1/1
f 14/1/1 10/1/1 13/1/1
f 15/6/1 12/6/1 11/6/1
f 16/6/1 12/6/1 15/6/1
f 17/6/1 14/6/1 13/6/1
f 18/6/1 14/6/1 17/6/1
f 19/1/1 16/1/1 15/1/1
f 19/1/1 17/1/1 16/1/1
f 19/1/1 18/1/1 17/1/1
f 20/1/1 18/1/1 19/1/1
f 23/2/1 22/2/1 21/2/1
f 24/2/1 22/2/1 23/2/1
f 29/3/1 26/3/1 25/3/1
f 30/3/1 26/3/1 29/3/1
f 31/3/1 28/3/1 27/3/1
f 32/3/1 28/3/1 31/3/1
f 35/1/1 34/1/1 33/1/1
f 36/1/1 34/1/1 35/1/1
f 37/1/1 34/1/1 36/1/1
f 38/1/1 34/1/1 37/1/1
f 43/3/1 40/3/1 39/3/1
f 44/3/1 40/3/1 43/3/1
f 45/3/1 42/3/1 41/3/1
f 46/3/1 42/3/1 45/3/1
f 49/2/1 48/2/1 47/2/1
f 50/2/1 48/2/1 49/2/1
f 51/4/2 52/4/2 53/4/2
f 53/4/2 52/4/2 54/4/2
f 55/1/2 56/1/2 59/1/2
f 56/2/2 57/2/2 60/2/2
f 59/1/2 56/1/2 60/1/2
f 57/1/2 58/1/2 61/1/2
f 60/2/2 57/2/2 61/2/2
f 61/1/2 58/1/2 62/1/2
f 60/2/2 61/2/2 63/2/2
f 63/2/2 61/2/2 64/2/2
f 65/3/2 66/3/2 69/3/2
f 69/3/2 66/3/2 70/3/2
f 67/3/2 68/3/2 71/3/2
f 71/3/2 68/3/2 72/3/2
f 73/3/2 74/3/2 77/3/2
f 77/3/2 74/3/2 78/3/2
f 75/3/2 76/3/2 79/3/2
f 79/3/2 76/3/2 80/3/2
f 81/1/2 82/1/2 83/1/2
f 83/1/2 82/1/2 84/1/2
f 81/1/2 83/1/2 85/1/2
f 85/1/2 83/1/2 86/1/2
f 84/1/2 82/1/2 87/1/2
f 87/1/2 82/1/2 88/1/2
f 89/2/2 90/2/2 91/2/2
f 91/2/2 90/2/2 92/2/2
f 97/3/3 94/3/3 93/3/3
f 98/1/3 96/1/3 95/1/3
f 99/3/3 97/3/3 93/3/3
f 99/3/3 98/3/3 97/3/3
f 100/1/3 96/1/3 98/1/3
f 100/3/3 98/3/3 99/3/3
f 101/3/3 99/3/3 93/3/3
f 102/3/3 99/3/3 101/3/3
f 103/1/3 96/1/3 100/1/3
f 104/1/3 96/1/3 103/1/3
f 109/1/3 106/1/3 105/1/3
f 109/6/3 107/6/3 106/6/3
f 110/1/3 108/1/3 107/1/3
f 110/6/3 107/6/3 109/6/3
f 111/1/3 109/1/3 105/1/3
f 111/1/3 110/1/3 109/1/3
f 112/1/3 110/1/3 111/1/3
f 113/1/3 108/1/3 110/1/3
f 113/1/3 110/1/3 112/1/3
f 118/4/3 115/4/3 114/4/3
f 119/4/3 115/4/3 118/4/3
f 120/4/3 117/4/3 116/4/3
f 121/4/3 117/4/3 120/4/3
f 124/2/3 123/2/3 122/2/3
f 125/2/3 123/2/3 124/2/3
f 129/2/3 127/2/3 126/2/3
f 130/2/3 129/2/3 128/2/3
f 131/2/3 127/2/3 129/2/3
f 131/2/3 129/2/3 130/2/3
f 134/3/3 133/3/3 132/3/3
f 136/3/3 134/3/3 132/3/3
f 136/3/3 135/3/3 134/3/3
f 137/3/3 135/3/3 136/3/3
f 138/3/3 136/3/3 132/3/3
f 139/3/3 136/3/3 138/3/3
f 140/3/4 141/3/4 142/3/4
f 140/3/4 142/3/4 144/3/4
f 142/3/4 143/3/4 144/3/4
f 144/3/4 143/3/4 145/3/4
f 140/3/4 144/3/4 146/3/4
f 146/3/4 144/3/4 147/3/4
f 148/4/4 149/4/4 152/4/4
f 152/4/4 149/4/4 153/4/4
f 150/4/4 151/4/4 154/4/4
f 154/4/4 151/4/4 155/4/4
f 156/2/4 157/2/4 158/2/4
f 158/2/4 157/2/4 159/2/4
f 160/2/4 161/2/4 163/2/4
f 162/2/4 163/2/4 164/2/4
f 163/2/4 161/2/4 165/2/4
f 164/2/4 163/2/4 165/2/4
f 166/1/4 167/1/4 170/1/4
f 167/6/4 168/6/4 170/6/4
f 168/1/4 169/1/4 171/1/4
f 170/6/4 168/6/4 171/6/4
f 166/1/4 170/1/4 172/1/4
f 170/1/4 171/1/4 172/1/4
f 172/1/4 171/1/4 173/1/4
f 171/1/4 169/1/4 174/1/4
f 173/1/4 171/1/4 174/1/4
f 175/3/4 176/3/4 179/3/4
f 177/1/4 178/1/4 180/1/4
f 175/3/4 179/3/4 181/3/4
f 179/3/4 180/3/4 181/3/4
f 180/1/4 178/1/4 182/1/4
f 181/3/4 180/3/4 182/3/4
f 175/3/4 181/3/4 183/3/4
f 183/3/4 181/3/4 184/3/4
f 182/1/4 178/1/4 185/1/4
f 185/1/4 178/1/4 186/1/4
f 189/3/5 188/3/5 187/3/5
f 190/3/5 188/3/5 189/3/5
f 193/3/5 192/3/5 191/3/5
f 194/3/5 192/3/5 193/3/5
f 199/1/5 196/1/5 195/1/5
f 200/1/5 198/1/5 197/1/5
f 201/1/5 199/1/5 195/1/5
f 201/1/5 200/1/5 199/1/5
f 202/1/5 198/1/5 200/1/5
f 202/1/5 200/1/5 201/1/5
f 203/1/5 201/1/5 195/1/5
f 204/1/5 201/1/5 203/1/5
f 205/1/5 198/1/5 202/1/5
f 206/1/5 198/1/5 205/1/5
f 209/2/5 208/2/5 207/2/5
f 210/2/5 208/2/5 209/2/5
f 213/4/5 212/4/5 211/4/5
f 214/4/5 212/4/5 213/4/5
f 217/1/5 216/1/5 215/1/5
f 218/1/5 216/1/5 217/1/5
f 220/1/5 216/1/5 218/1/5
f 221/1/5 220/1/5 219/1/5
f 222/1/5 216/1/5 220/1/5
f 222/1/5 220/1/5 221/1/5
f 225/4/5 224/4/5 223/4/5
f 226/4/5 224/4/5 225/4/5
f 227/3/6 228/3/6 231/3/6
f 231/3/6 228/3/6 232/3/6
f 229/3/6 230/3/6 233/3/6
f 233/3/6 230/3/6 234/3/6
f 235/3/6 236/3/6 239/3/6
f 239/3/6 236/3/6 240/3/6
f 237/3/6 238/3/6 241/3/6
f 241/3/6 238/3/6 242/3/6
f 243/1/6 244/1/6 245/1/6
f 245/1/6 244/1/6 246/1/6
f 246/1/6 244/1/6 247/1/6
f 247/1/6 244/1/6 248/1/6
f 248/1/6 244/1/6 249/1/6
f 247/1/6 248/1/6 250/1/6
f 250/1/6 248/1/6 251/1/6
f 250/1/6 251/1/6 254/1/6
f 251/1/6 252/1/6 254/1/6
f 253/1/6 254/1/6 255/1/6
f 254/1/6 252/1/6 256/1/6
f 255/1/6 254/1/6 256/1/6
f 257/2/6 258/2/6 259/2/6
f 259/2/6 258/2/6 260/2/6
f 261/4/6 262/4/6 263/4/6
f 263/4/6 262/4/6 264/4/6
f 265/1/6 266/1/6 267/1/6
f 267/1/6 266/1/6 268/1/6
f 265/1/6 267/1/6 269/1/6
f 265/1/6 269/1/6 271/1/6
f 269/1/6 270/1/6 271/1/6
f 271/1/6 270/1/6 272/1/6
f 273/2/6 274/2/6 275/2/6
f 275/2/6 274/2/6 276/2/6
