# MagicaVoxel @ Ephtracy

# group
o 

# material
mtllib Pig.mtl
usemtl palette

# normals
vn -1 0 0
vn 1 0 0
vn 0 0 1
vn 0 0 -1
vn 0 -1 0
vn 0 1 0

# texcoords
vt 0.912109 0.5
vt 0.939453 0.5
vt 0.943359 0.5
vt 0.970703 0.5

# verts
v -0.2 0.2 0.1
v -0.2 0.2 -0.3
v -0.2 0.4 0.2
v -0.2 0.4 0.1
v -0.2 0.4 -0.2
v -0.2 0.4 -0.3
v -0.2 0.6 0.2
v -0.2 0.6 -0.2
v -0.1 0 0.1
v -0.1 0 0
v -0.1 0 -0.1
v -0.1 0 -0.2
v -0.1 0.2 0.1
v -0.1 0.2 0
v -0.1 0.2 -0.1
v -0.1 0.2 -0.2
v -0.1 0.6 0
v -0.1 0.6 -0.1
v -0.1 0.7 0
v -0.1 0.7 -0.1
v 0.1 0 0.1
v 0.1 0 0
v 0.1 0 -0.1
v 0.1 0 -0.2
v 0.1 0.2 0.1
v 0.1 0.2 0
v 0.1 0.2 -0.1
v 0.1 0.2 -0.2
v 0.1 0.6 0
v 0.1 0.6 -0.1
v 0.1 0.7 0
v 0.1 0.7 -0.1
v 0 0 0.1
v 0 0 0
v 0 0 -0.1
v 0 0 -0.2
v 0 0.2 0.1
v 0 0.2 0
v 0 0.2 -0.1
v 0 0.2 -0.2
v 0 0.6 0
v 0 0.6 -0.1
v 0 0.7 0
v 0 0.7 -0.1
v 0.2 0 0.1
v 0.2 0 0
v 0.2 0 -0.1
v 0.2 0 -0.2
v 0.2 0.2 0.1
v 0.2 0.2 0
v 0.2 0.2 -0.1
v 0.2 0.2 -0.2
v 0.2 0.6 0
v 0.2 0.6 -0.1
v 0.2 0.7 0
v 0.2 0.7 -0.1
v 0.3 0.2 0.1
v 0.3 0.2 -0.3
v 0.3 0.4 0.2
v 0.3 0.4 0.1
v 0.3 0.4 -0.2
v 0.3 0.4 -0.3
v 0.3 0.6 0.2
v 0.3 0.6 -0.2
v -0.2 0.4 0.2
v -0.2 0.6 0.2
v -0.1 0.4 0.2
v -0.1 0.5 0.2
v -0.1 0.6 0.2
v 0 0.5 0.2
v 0 0.6 0.2
v 0.1 0.5 0.2
v 0.1 0.6 0.2
v 0.2 0.4 0.2
v 0.2 0.5 0.2
v 0.2 0.6 0.2
v 0.3 0.4 0.2
v 0.3 0.6 0.2
v -0.2 0.2 0.1
v -0.2 0.4 0.1
v -0.1 0 0.1
v -0.1 0.2 0.1
v -0.1 0.4 0.1
v 0 0 0.1
v 0 0.2 0.1
v 0.1 0 0.1
v 0.1 0.2 0.1
v 0.2 0 0.1
v 0.2 0.2 0.1
v 0.2 0.4 0.1
v 0.3 0.2 0.1
v 0.3 0.4 0.1
v -0.1 0.6 0
v -0.1 0.7 0
v 0 0.6 0
v 0 0.7 0
v 0.1 0.6 0
v 0.1 0.7 0
v 0.2 0.6 0
v 0.2 0.7 0
v -0.1 0 -0.1
v -0.1 0.2 -0.1
v 0 0 -0.1
v 0 0.2 -0.1
v 0.1 0 -0.1
v 0.1 0.2 -0.1
v 0.2 0 -0.1
v 0.2 0.2 -0.1
v -0.1 0 0
v -0.1 0.2 0
v 0 0 0
v 0 0.2 0
v 0.1 0 0
v 0.1 0.2 0
v 0.2 0 0
v 0.2 0.2 0
v -0.1 0.6 -0.1
v -0.1 0.7 -0.1
v 0 0.6 -0.1
v 0 0.7 -0.1
v 0.1 0.6 -0.1
v 0.1 0.7 -0.1
v 0.2 0.6 -0.1
v 0.2 0.7 -0.1
v -0.2 0.4 -0.2
v -0.2 0.6 -0.2
v -0.1 0 -0.2
v -0.1 0.2 -0.2
v 0 0 -0.2
v 0 0.2 -0.2
v 0.1 0 -0.2
v 0.1 0.2 -0.2
v 0.2 0 -0.2
v 0.2 0.2 -0.2
v 0.3 0.4 -0.2
v 0.3 0.6 -0.2
v -0.2 0.2 -0.3
v -0.2 0.4 -0.3
v 0.3 0.2 -0.3
v 0.3 0.4 -0.3
v -0.1 0 0.1
v 0 0 0.1
v 0.1 0 0.1
v 0.2 0 0.1
v -0.1 0 0
v 0 0 0
v 0.1 0 0
v 0.2 0 0
v -0.1 0 -0.1
v 0 0 -0.1
v 0.1 0 -0.1
v 0.2 0 -0.1
v -0.1 0 -0.2
v 0 0 -0.2
v 0.1 0 -0.2
v 0.2 0 -0.2
v -0.2 0.2 0.1
v -0.1 0.2 0.1
v 0 0.2 0.1
v 0.1 0.2 0.1
v 0.2 0.2 0.1
v 0.3 0.2 0.1
v -0.1 0.2 0
v 0 0.2 0
v 0.1 0.2 0
v 0.2 0.2 0
v -0.1 0.2 -0.1
v 0 0.2 -0.1
v 0.1 0.2 -0.1
v 0.2 0.2 -0.1
v -0.1 0.2 -0.2
v 0 0.2 -0.2
v 0.1 0.2 -0.2
v 0.2 0.2 -0.2
v -0.2 0.2 -0.3
v 0.3 0.2 -0.3
v -0.2 0.4 0.2
v -0.1 0.4 0.2
v 0.2 0.4 0.2
v 0.3 0.4 0.2
v -0.2 0.4 0.1
v -0.1 0.4 0.1
v 0.2 0.4 0.1
v 0.3 0.4 0.1
v -0.2 0.4 -0.2
v 0.3 0.4 -0.2
v -0.2 0.4 -0.3
v 0.3 0.4 -0.3
v -0.2 0.6 0.2
v -0.1 0.6 0.2
v 0 0.6 0.2
v 0.1 0.6 0.2
v 0.2 0.6 0.2
v 0.3 0.6 0.2
v -0.1 0.6 0.1
v 0 0.6 0.1
v 0.1 0.6 0.1
v 0.2 0.6 0.1
v -0.1 0.6 0
v 0 0.6 0
v 0.1 0.6 0
v 0.2 0.6 0
v -0.1 0.6 -0.1
v 0 0.6 -0.1
v 0.1 0.6 -0.1
v 0.2 0.6 -0.1
v -0.2 0.6 -0.2
v 0.3 0.6 -0.2
v -0.1 0.7 0
v 0 0.7 0
v 0.1 0.7 0
v 0.2 0.7 0
v -0.1 0.7 -0.1
v 0 0.7 -0.1
v 0.1 0.7 -0.1
v 0.2 0.7 -0.1

# faces
f 4/3/1 2/3/1 1/3/1
f 5/3/1 2/3/1 4/3/1
f 6/3/1 2/3/1 5/3/1
f 7/3/1 4/3/1 3/3/1
f 7/3/1 5/3/1 4/3/1
f 8/3/1 5/3/1 7/3/1
f 13/2/1 10/2/1 9/2/1
f 14/2/1 10/2/1 13/2/1
f 15/2/1 12/2/1 11/2/1
f 16/2/1 12/2/1 15/2/1
f 19/2/1 18/2/1 17/2/1
f 20/2/1 18/2/1 19/2/1
f 25/2/1 22/2/1 21/2/1
f 26/2/1 22/2/1 25/2/1
f 27/2/1 24/2/1 23/2/1
f 28/2/1 24/2/1 27/2/1
f 31/2/1 30/2/1 29/2/1
f 32/2/1 30/2/1 31/2/1
f 33/2/2 34/2/2 37/2/2
f 37/2/2 34/2/2 38/2/2
f 35/2/2 36/2/2 39/2/2
f 39/2/2 36/2/2 40/2/2
f 41/2/2 42/2/2 43/2/2
f 43/2/2 42/2/2 44/2/2
f 45/2/2 46/2/2 49/2/2
f 49/2/2 46/2/2 50/2/2
f 47/2/2 48/2/2 51/2/2
f 51/2/2 48/2/2 52/2/2
f 53/2/2 54/2/2 55/2/2
f 55/2/2 54/2/2 56/2/2
f 57/3/2 58/3/2 60/3/2
f 60/3/2 58/3/2 61/3/2
f 61/3/2 58/3/2 62/3/2
f 59/3/2 60/3/2 63/3/2
f 60/3/2 61/3/2 63/3/2
f 63/3/2 61/3/2 64/3/2
f 67/3/3 66/3/3 65/3/3
f 68/3/3 66/3/3 67/3/3
f 69/3/3 66/3/3 68/3/3
f 70/2/3 68/2/3 67/2/3
f 70/1/3 69/1/3 68/1/3
f 71/1/3 69/1/3 70/1/3
f 72/2/3 70/2/3 67/2/3
f 72/3/3 71/3/3 70/3/3
f 73/3/3 71/3/3 72/3/3
f 74/2/3 72/2/3 67/2/3
f 75/1/3 73/1/3 72/1/3
f 75/2/3 72/2/3 74/2/3
f 76/1/3 73/1/3 75/1/3
f 77/3/3 75/3/3 74/3/3
f 77/3/3 76/3/3 75/3/3
f 78/3/3 76/3/3 77/3/3
f 82/3/3 80/3/3 79/3/3
f 83/3/3 80/3/3 82/3/3
f 84/2/3 82/2/3 81/2/3
f 85/3/3 83/3/3 82/3/3
f 85/2/3 82/2/3 84/2/3
f 87/3/3 83/3/3 85/3/3
f 88/2/3 87/2/3 86/2/3
f 89/3/3 83/3/3 87/3/3
f 89/2/3 87/2/3 88/2/3
f 90/3/3 83/3/3 89/3/3
f 91/3/3 90/3/3 89/3/3
f 92/3/3 90/3/3 91/3/3
f 95/2/3 94/2/3 93/2/3
f 96/2/3 94/2/3 95/2/3
f 99/2/3 98/2/3 97/2/3
f 100/2/3 98/2/3 99/2/3
f 103/2/3 102/2/3 101/2/3
f 104/2/3 102/2/3 103/2/3
f 107/2/3 106/2/3 105/2/3
f 108/2/3 106/2/3 107/2/3
f 109/2/4 110/2/4 111/2/4
f 111/2/4 110/2/4 112/2/4
f 113/2/4 114/2/4 115/2/4
f 115/2/4 114/2/4 116/2/4
f 117/2/4 118/2/4 119/2/4
f 119/2/4 118/2/4 120/2/4
f 121/2/4 122/2/4 123/2/4
f 123/2/4 122/2/4 124/2/4
f 127/2/4 128/2/4 129/2/4
f 129/2/4 128/2/4 130/2/4
f 131/2/4 132/2/4 133/2/4
f 133/2/4 132/2/4 134/2/4
f 125/3/4 126/3/4 135/3/4
f 135/3/4 126/3/4 136/3/4
f 137/3/4 138/3/4 139/3/4
f 139/3/4 138/3/4 140/3/4
f 145/2/5 142/2/5 141/2/5
f 146/2/5 142/2/5 145/2/5
f 147/2/5 144/2/5 143/2/5
f 148/2/5 144/2/5 147/2/5
f 153/2/5 150/2/5 149/2/5
f 154/2/5 150/2/5 153/2/5
f 155/2/5 152/2/5 151/2/5
f 156/2/5 152/2/5 155/2/5
f 163/3/5 158/3/5 157/3/5
f 164/3/5 160/3/5 159/3/5
f 165/3/5 160/3/5 164/3/5
f 166/3/5 162/3/5 161/3/5
f 167/3/5 165/3/5 164/3/5
f 167/3/5 166/3/5 165/3/5
f 167/3/5 163/3/5 157/3/5
f 167/3/5 164/3/5 163/3/5
f 168/3/5 166/3/5 167/3/5
f 169/3/5 166/3/5 168/3/5
f 170/3/5 162/3/5 166/3/5
f 170/3/5 166/3/5 169/3/5
f 171/3/5 167/3/5 157/3/5
f 172/3/5 169/3/5 168/3/5
f 173/3/5 169/3/5 172/3/5
f 174/3/5 162/3/5 170/3/5
f 175/3/5 171/3/5 157/3/5
f 175/3/5 174/3/5 173/3/5
f 175/3/5 173/3/5 172/3/5
f 175/3/5 172/3/5 171/3/5
f 176/3/5 162/3/5 174/3/5
f 176/3/5 174/3/5 175/3/5
f 181/3/5 178/3/5 177/3/5
f 182/2/5 179/2/5 178/2/5
f 182/3/5 178/3/5 181/3/5
f 183/3/5 180/3/5 179/3/5
f 183/2/5 179/2/5 182/2/5
f 184/3/5 180/3/5 183/3/5
f 185/3/6 186/3/6 187/3/6
f 187/3/6 186/3/6 188/3/6
f 189/3/6 190/3/6 195/3/6
f 190/1/6 191/1/6 195/1/6
f 191/3/6 192/3/6 196/3/6
f 195/1/6 191/1/6 196/1/6
f 192/1/6 193/1/6 197/1/6
f 196/3/6 192/3/6 197/3/6
f 193/3/6 194/3/6 198/3/6
f 197/1/6 193/1/6 198/1/6
f 196/3/6 197/3/6 199/3/6
f 195/3/6 196/3/6 199/3/6
f 197/3/6 198/3/6 199/3/6
f 189/3/6 195/3/6 199/3/6
f 199/3/6 198/3/6 200/3/6
f 200/3/6 198/3/6 201/3/6
f 198/3/6 194/3/6 202/3/6
f 201/3/6 198/3/6 202/3/6
f 189/3/6 199/3/6 203/3/6
f 200/3/6 201/3/6 204/3/6
f 204/3/6 201/3/6 205/3/6
f 202/3/6 194/3/6 206/3/6
f 189/3/6 203/3/6 207/3/6
f 205/3/6 206/3/6 207/3/6
f 204/3/6 205/3/6 207/3/6
f 203/3/6 204/3/6 207/3/6
f 206/3/6 194/3/6 208/3/6
f 207/3/6 206/3/6 208/3/6
f 209/2/6 210/2/6 213/2/6
f 213/2/6 210/2/6 214/2/6
f 211/2/6 212/2/6 215/2/6
f 215/2/6 212/2/6 216/2/6
