# MagicaVoxel @ Ephtracy

# group
o 

# material
mtllib ZenFarm_Sheep.mtl
usemtl palette

# normals
vn -1 0 0
vn 1 0 0
vn 0 0 1
vn 0 0 -1
vn 0 -1 0
vn 0 1 0

# texcoords
vt 0.00195312 0.5
vt 0.0292969 0.5
vt 0.0449219 0.5
vt 0.912109 0.5
vt 0.962891 0.5
vt 0.994141 0.5

# verts
v -0.4 0.5 0.2
v -0.4 0.5 0.1
v -0.4 0.5 0
v -0.4 0.5 -0.1
v -0.4 0.6 0.2
v -0.4 0.6 0.1
v -0.4 0.6 0
v -0.4 0.6 -0.1
v -0.4 0.7 0.2
v -0.4 0.7 0.1
v -0.4 0.7 0
v -0.4 0.7 -0.1
v -0.4 0.8 0.2
v -0.4 0.8 -0.1
v -0.2 0.3 0.3
v -0.2 0.3 -0.2
v -0.2 0.5 0.2
v -0.2 0.5 -0.1
v -0.2 0.6 0.3
v -0.2 0.6 0.2
v -0.2 0.6 -0.1
v -0.2 0.6 -0.2
v -0.1 0 0.3
v -0.1 0 0.2
v -0.1 0 -0.1
v -0.1 0 -0.2
v -0.1 0.1 0.3
v -0.1 0.1 0.2
v -0.1 0.1 -0.1
v -0.1 0.1 -0.2
v -0.1 0.3 0.3
v -0.1 0.3 0.2
v -0.1 0.3 -0.1
v -0.1 0.3 -0.2
v 0.2 0 0.3
v 0.2 0 0.2
v 0.2 0 -0.1
v 0.2 0 -0.2
v 0.2 0.1 0.3
v 0.2 0.1 0.2
v 0.2 0.1 -0.1
v 0.2 0.1 -0.2
v 0.2 0.3 0.3
v 0.2 0.3 0.2
v 0.2 0.3 -0.1
v 0.2 0.3 -0.2
v -0.1 0.6 0.2
v -0.1 0.6 -0.1
v -0.1 0.8 0.2
v -0.1 0.8 -0.1
v 0 0 0.3
v 0 0 0.2
v 0 0 -0.1
v 0 0 -0.2
v 0 0.1 0.3
v 0 0.1 0.2
v 0 0.1 -0.1
v 0 0.1 -0.2
v 0 0.3 0.3
v 0 0.3 0.2
v 0 0.3 -0.1
v 0 0.3 -0.2
v 0.3 0 0.3
v 0.3 0 0.2
v 0.3 0 -0.1
v 0.3 0 -0.2
v 0.3 0.1 0.3
v 0.3 0.1 0.2
v 0.3 0.1 -0.1
v 0.3 0.1 -0.2
v 0.3 0.3 0.3
v 0.3 0.3 0.2
v 0.3 0.3 -0.1
v 0.3 0.3 -0.2
v 0.4 0.3 0.3
v 0.4 0.3 -0.2
v 0.4 0.6 0.3
v 0.4 0.6 -0.2
v -0.2 0.3 0.3
v -0.2 0.6 0.3
v -0.1 0 0.3
v -0.1 0.1 0.3
v -0.1 0.3 0.3
v 0 0 0.3
v 0 0.1 0.3
v 0 0.3 0.3
v 0.2 0 0.3
v 0.2 0.1 0.3
v 0.2 0.3 0.3
v 0.3 0 0.3
v 0.3 0.1 0.3
v 0.3 0.3 0.3
v 0.4 0.3 0.3
v 0.4 0.6 0.3
v -0.4 0.5 0.2
v -0.4 0.6 0.2
v -0.4 0.7 0.2
v -0.4 0.8 0.2
v -0.3 0.6 0.2
v -0.3 0.7 0.2
v -0.2 0.5 0.2
v -0.2 0.6 0.2
v -0.1 0.6 0.2
v -0.1 0.8 0.2
v -0.1 0 -0.1
v -0.1 0.1 -0.1
v -0.1 0.3 -0.1
v 0 0 -0.1
v 0 0.1 -0.1
v 0 0.3 -0.1
v 0.2 0 -0.1
v 0.2 0.1 -0.1
v 0.2 0.3 -0.1
v 0.3 0 -0.1
v 0.3 0.1 -0.1
v 0.3 0.3 -0.1
v -0.1 0 0.2
v -0.1 0.1 0.2
v -0.1 0.3 0.2
v 0 0 0.2
v 0 0.1 0.2
v 0 0.3 0.2
v 0.2 0 0.2
v 0.2 0.1 0.2
v 0.2 0.3 0.2
v 0.3 0 0.2
v 0.3 0.1 0.2
v 0.3 0.3 0.2
v -0.4 0.5 -0.1
v -0.4 0.6 -0.1
v -0.4 0.7 -0.1
v -0.4 0.8 -0.1
v -0.3 0.6 -0.1
v -0.3 0.7 -0.1
v -0.2 0.5 -0.1
v -0.2 0.6 -0.1
v -0.1 0.6 -0.1
v -0.1 0.8 -0.1
v -0.2 0.3 -0.2
v -0.2 0.6 -0.2
v -0.1 0 -0.2
v -0.1 0.1 -0.2
v -0.1 0.3 -0.2
v 0 0 -0.2
v 0 0.1 -0.2
v 0 0.3 -0.2
v 0.2 0 -0.2
v 0.2 0.1 -0.2
v 0.2 0.3 -0.2
v 0.3 0 -0.2
v 0.3 0.1 -0.2
v 0.3 0.3 -0.2
v 0.4 0.3 -0.2
v 0.4 0.6 -0.2
v -0.1 0 0.3
v 0 0 0.3
v 0.2 0 0.3
v 0.3 0 0.3
v -0.1 0 0.2
v 0 0 0.2
v 0.2 0 0.2
v 0.3 0 0.2
v -0.1 0 -0.1
v 0 0 -0.1
v 0.2 0 -0.1
v 0.3 0 -0.1
v -0.1 0 -0.2
v 0 0 -0.2
v 0.2 0 -0.2
v 0.3 0 -0.2
v -0.2 0.3 0.3
v -0.1 0.3 0.3
v 0 0.3 0.3
v 0.2 0.3 0.3
v 0.3 0.3 0.3
v 0.4 0.3 0.3
v -0.1 0.3 0.2
v 0 0.3 0.2
v 0.2 0.3 0.2
v 0.3 0.3 0.2
v -0.1 0.3 -0.1
v 0 0.3 -0.1
v 0.2 0.3 -0.1
v 0.3 0.3 -0.1
v -0.2 0.3 -0.2
v -0.1 0.3 -0.2
v 0 0.3 -0.2
v 0.2 0.3 -0.2
v 0.3 0.3 -0.2
v 0.4 0.3 -0.2
v -0.4 0.5 0.2
v -0.2 0.5 0.2
v -0.4 0.5 0.1
v -0.3 0.5 0.1
v -0.4 0.5 0
v -0.3 0.5 0
v -0.4 0.5 -0.1
v -0.2 0.5 -0.1
v -0.2 0.6 0.3
v 0.4 0.6 0.3
v -0.2 0.6 0.2
v -0.1 0.6 0.2
v 0 0.6 0.2
v 0.2 0.6 0.2
v 0 0.6 0.1
v 0.1 0.6 0.1
v 0.1 0.6 0
v 0.2 0.6 0
v -0.2 0.6 -0.1
v -0.1 0.6 -0.1
v -0.2 0.6 -0.2
v 0.4 0.6 -0.2
v -0.4 0.8 0.2
v -0.1 0.8 0.2
v -0.4 0.8 -0.1
v -0.1 0.8 -0.1

# faces
f 5/4/1 2/4/1 1/4/1
f 6/2/1 3/2/1 2/2/1
f 6/4/1 2/4/1 5/4/1
f 7/4/1 4/4/1 3/4/1
f 7/2/1 3/2/1 6/2/1
f 8/4/1 4/4/1 7/4/1
f 9/6/1 6/6/1 5/6/1
f 10/4/1 7/4/1 6/4/1
f 10/6/1 6/6/1 9/6/1
f 11/6/1 8/6/1 7/6/1
f 11/4/1 7/4/1 10/4/1
f 12/6/1 8/6/1 11/6/1
f 13/4/1 10/4/1 9/4/1
f 13/4/1 11/4/1 10/4/1
f 13/4/1 12/4/1 11/4/1
f 14/4/1 12/4/1 13/4/1
f 17/4/1 16/4/1 15/4/1
f 18/4/1 16/4/1 17/4/1
f 19/4/1 17/4/1 15/4/1
f 20/4/1 17/4/1 19/4/1
f 21/4/1 16/4/1 18/4/1
f 22/4/1 16/4/1 21/4/1
f 27/6/1 24/6/1 23/6/1
f 28/6/1 24/6/1 27/6/1
f 29/6/1 26/6/1 25/6/1
f 30/6/1 26/6/1 29/6/1
f 31/4/1 28/4/1 27/4/1
f 32/4/1 28/4/1 31/4/1
f 33/1/1 30/1/1 29/1/1
f 34/1/1 30/1/1 33/1/1
f 39/6/1 36/6/1 35/6/1
f 40/6/1 36/6/1 39/6/1
f 41/6/1 38/6/1 37/6/1
f 42/6/1 38/6/1 41/6/1
f 43/4/1 40/4/1 39/4/1
f 44/4/1 40/4/1 43/4/1
f 45/4/1 42/4/1 41/4/1
f 46/4/1 42/4/1 45/4/1
f 47/4/2 48/4/2 49/4/2
f 49/4/2 48/4/2 50/4/2
f 51/6/2 52/6/2 55/6/2
f 55/6/2 52/6/2 56/6/2
f 53/6/2 54/6/2 57/6/2
f 57/6/2 54/6/2 58/6/2
f 55/4/2 56/4/2 59/4/2
f 59/4/2 56/4/2 60/4/2
f 57/1/2 58/1/2 61/1/2
f 61/1/2 58/1/2 62/1/2
f 63/6/2 64/6/2 67/6/2
f 67/6/2 64/6/2 68/6/2
f 65/6/2 66/6/2 69/6/2
f 69/6/2 66/6/2 70/6/2
f 67/4/2 68/4/2 71/4/2
f 71/4/2 68/4/2 72/4/2
f 69/4/2 70/4/2 73/4/2
f 73/4/2 70/4/2 74/4/2
f 75/4/2 76/4/2 77/4/2
f 77/4/2 76/4/2 78/4/2
f 83/4/3 80/4/3 79/4/3
f 84/6/3 82/6/3 81/6/3
f 85/4/3 83/4/3 82/4/3
f 85/6/3 82/6/3 84/6/3
f 86/4/3 80/4/3 83/4/3
f 86/4/3 83/4/3 85/4/3
f 89/4/3 80/4/3 86/4/3
f 90/6/3 88/6/3 87/6/3
f 91/4/3 89/4/3 88/4/3
f 91/6/3 88/6/3 90/6/3
f 92/4/3 80/4/3 89/4/3
f 92/4/3 89/4/3 91/4/3
f 93/4/3 80/4/3 92/4/3
f 94/4/3 80/4/3 93/4/3
f 99/4/3 96/4/3 95/4/3
f 99/6/3 97/6/3 96/6/3
f 100/4/3 98/4/3 97/4/3
f 100/6/3 97/6/3 99/6/3
f 101/4/3 99/4/3 95/4/3
f 101/4/3 100/4/3 99/4/3
f 102/4/3 100/4/3 101/4/3
f 103/4/3 100/4/3 102/4/3
f 104/4/3 98/4/3 100/4/3
f 104/4/3 100/4/3 103/4/3
f 108/6/3 106/6/3 105/6/3
f 109/1/3 107/1/3 106/1/3
f 109/6/3 106/6/3 108/6/3
f 110/1/3 107/1/3 109/1/3
f 114/6/3 112/6/3 111/6/3
f 115/4/3 113/4/3 112/4/3
f 115/6/3 112/6/3 114/6/3
f 116/4/3 113/4/3 115/4/3
f 117/6/4 118/6/4 120/6/4
f 118/4/4 119/4/4 121/4/4
f 120/6/4 118/6/4 121/6/4
f 121/4/4 119/4/4 122/4/4
f 123/6/4 124/6/4 126/6/4
f 124/4/4 125/4/4 127/4/4
f 126/6/4 124/6/4 127/6/4
f 127/4/4 125/4/4 128/4/4
f 129/4/4 130/4/4 133/4/4
f 130/6/4 131/6/4 133/6/4
f 131/4/4 132/4/4 134/4/4
f 133/6/4 131/6/4 134/6/4
f 129/4/4 133/4/4 135/4/4
f 133/4/4 134/4/4 135/4/4
f 135/4/4 134/4/4 136/4/4
f 136/4/4 134/4/4 137/4/4
f 134/4/4 132/4/4 138/4/4
f 137/4/4 134/4/4 138/4/4
f 139/4/4 140/4/4 143/4/4
f 141/6/4 142/6/4 144/6/4
f 142/1/4 143/1/4 145/1/4
f 144/6/4 142/6/4 145/6/4
f 143/4/4 140/4/4 146/4/4
f 145/1/4 143/1/4 146/1/4
f 146/4/4 140/4/4 149/4/4
f 147/6/4 148/6/4 150/6/4
f 148/4/4 149/4/4 151/4/4
f 150/6/4 148/6/4 151/6/4
f 149/4/4 140/4/4 152/4/4
f 151/4/4 149/4/4 152/4/4
f 152/4/4 140/4/4 153/4/4
f 153/4/4 140/4/4 154/4/4
f 159/6/5 156/6/5 155/6/5
f 160/6/5 156/6/5 159/6/5
f 161/6/5 158/6/5 157/6/5
f 162/6/5 158/6/5 161/6/5
f 167/6/5 164/6/5 163/6/5
f 168/6/5 164/6/5 167/6/5
f 169/6/5 166/6/5 165/6/5
f 170/6/5 166/6/5 169/6/5
f 177/4/5 172/4/5 171/4/5
f 178/4/5 174/4/5 173/4/5
f 179/4/5 174/4/5 178/4/5
f 180/4/5 176/4/5 175/4/5
f 181/4/5 177/4/5 171/4/5
f 181/4/5 178/4/5 177/4/5
f 182/3/5 179/3/5 178/3/5
f 182/4/5 178/4/5 181/4/5
f 183/4/5 180/4/5 179/4/5
f 183/3/5 179/3/5 182/3/5
f 184/4/5 176/4/5 180/4/5
f 184/4/5 180/4/5 183/4/5
f 185/4/5 181/4/5 171/4/5
f 186/4/5 181/4/5 185/4/5
f 187/4/5 183/4/5 182/4/5
f 188/4/5 183/4/5 187/4/5
f 189/4/5 176/4/5 184/4/5
f 190/4/5 176/4/5 189/4/5
f 193/4/5 192/4/5 191/4/5
f 194/4/5 192/4/5 193/4/5
f 195/2/5 194/2/5 193/2/5
f 196/4/5 192/4/5 194/4/5
f 196/2/5 194/2/5 195/2/5
f 197/4/5 196/4/5 195/4/5
f 198/4/5 192/4/5 196/4/5
f 198/4/5 196/4/5 197/4/5
f 199/4/6 200/4/6 201/4/6
f 201/4/6 200/4/6 202/4/6
f 202/4/6 200/4/6 203/4/6
f 203/4/6 200/4/6 204/4/6
f 202/4/6 203/4/6 205/4/6
f 203/1/6 204/1/6 205/1/6
f 205/1/6 204/1/6 206/1/6
f 205/4/6 206/4/6 207/4/6
f 206/1/6 204/1/6 207/1/6
f 204/4/6 200/4/6 208/4/6
f 207/1/6 204/1/6 208/1/6
f 205/4/6 207/4/6 210/4/6
f 202/4/6 205/4/6 210/4/6
f 207/4/6 208/4/6 210/4/6
f 209/4/6 210/4/6 211/4/6
f 208/4/6 200/4/6 212/4/6
f 211/4/6 210/4/6 212/4/6
f 210/4/6 208/4/6 212/4/6
f 213/4/6 214/4/6 215/4/6
f 215/4/6 214/4/6 216/4/6
