# MagicaVoxel @ Ephtracy

# group
o 

# material
mtllib SheepWhite.mtl
usemtl palette

# normals
vn -1 0 0
vn 1 0 0
vn 0 0 1
vn 0 0 -1
vn 0 -1 0
vn 0 1 0

# texcoords
vt 0.876953 0.5
vt 0.912109 0.5
vt 0.974609 0.5
vt 0.978516 0.5

# verts
v -0.2 0.2 0.1
v -0.2 0.2 -0.3
v -0.2 0.4 0.1
v -0.2 0.4 -0.3
v -0.1 0 0.1
v -0.1 0 0
v -0.1 0 -0.1
v -0.1 0 -0.2
v -0.1 0.2 0.1
v -0.1 0.2 0
v -0.1 0.2 -0.1
v -0.1 0.2 -0.2
v -0.1 0.4 0.2
v -0.1 0.4 0.1
v -0.1 0.4 -0.2
v -0.1 0.5 0.2
v -0.1 0.5 0.1
v -0.1 0.6 0.2
v -0.1 0.6 0.1
v -0.1 0.7 0.1
v -0.1 0.7 -0.2
v 0.1 0 0.1
v 0.1 0 0
v 0.1 0 -0.1
v 0.1 0 -0.2
v 0.1 0.2 0.1
v 0.1 0.2 0
v 0.1 0.2 -0.1
v 0.1 0.2 -0.2
v 0 0 0.1
v 0 0 0
v 0 0 -0.1
v 0 0 -0.2
v 0 0.2 0.1
v 0 0.2 0
v 0 0.2 -0.1
v 0 0.2 -0.2
v 0.2 0 0.1
v 0.2 0 0
v 0.2 0 -0.1
v 0.2 0 -0.2
v 0.2 0.2 0.1
v 0.2 0.2 0
v 0.2 0.2 -0.1
v 0.2 0.2 -0.2
v 0.2 0.4 0.2
v 0.2 0.4 0.1
v 0.2 0.4 -0.2
v 0.2 0.5 0.2
v 0.2 0.5 0.1
v 0.2 0.6 0.2
v 0.2 0.6 0.1
v 0.2 0.7 0.1
v 0.2 0.7 -0.2
v 0.3 0.2 0.1
v 0.3 0.2 -0.3
v 0.3 0.4 0.1
v 0.3 0.4 -0.3
v -0.1 0.4 0.2
v -0.1 0.5 0.2
v -0.1 0.6 0.2
v 0 0.5 0.2
v 0 0.6 0.2
v 0.1 0.5 0.2
v 0.1 0.6 0.2
v 0.2 0.4 0.2
v 0.2 0.5 0.2
v 0.2 0.6 0.2
v -0.2 0.2 0.1
v -0.2 0.4 0.1
v -0.1 0 0.1
v -0.1 0.2 0.1
v -0.1 0.4 0.1
v -0.1 0.6 0.1
v -0.1 0.7 0.1
v 0 0 0.1
v 0 0.2 0.1
v 0 0.6 0.1
v 0.1 0 0.1
v 0.1 0.2 0.1
v 0.1 0.6 0.1
v 0.2 0 0.1
v 0.2 0.2 0.1
v 0.2 0.4 0.1
v 0.2 0.6 0.1
v 0.2 0.7 0.1
v 0.3 0.2 0.1
v 0.3 0.4 0.1
v -0.1 0 -0.1
v -0.1 0.2 -0.1
v 0 0 -0.1
v 0 0.2 -0.1
v 0.1 0 -0.1
v 0.1 0.2 -0.1
v 0.2 0 -0.1
v 0.2 0.2 -0.1
v -0.1 0 0
v -0.1 0.2 0
v 0 0 0
v 0 0.2 0
v 0.1 0 0
v 0.1 0.2 0
v 0.2 0 0
v 0.2 0.2 0
v -0.1 0 -0.2
v -0.1 0.2 -0.2
v -0.1 0.4 -0.2
v -0.1 0.7 -0.2
v 0 0 -0.2
v 0 0.2 -0.2
v 0.1 0 -0.2
v 0.1 0.2 -0.2
v 0.2 0 -0.2
v 0.2 0.2 -0.2
v 0.2 0.4 -0.2
v 0.2 0.7 -0.2
v -0.2 0.2 -0.3
v -0.2 0.4 -0.3
v 0.3 0.2 -0.3
v 0.3 0.4 -0.3
v -0.1 0 0.1
v 0 0 0.1
v 0.1 0 0.1
v 0.2 0 0.1
v -0.1 0 0
v 0 0 0
v 0.1 0 0
v 0.2 0 0
v -0.1 0 -0.1
v 0 0 -0.1
v 0.1 0 -0.1
v 0.2 0 -0.1
v -0.1 0 -0.2
v 0 0 -0.2
v 0.1 0 -0.2
v 0.2 0 -0.2
v -0.2 0.2 0.1
v -0.1 0.2 0.1
v 0 0.2 0.1
v 0.1 0.2 0.1
v 0.2 0.2 0.1
v 0.3 0.2 0.1
v -0.1 0.2 0
v 0 0.2 0
v 0.1 0.2 0
v 0.2 0.2 0
v -0.1 0.2 -0.1
v 0 0.2 -0.1
v 0.1 0.2 -0.1
v 0.2 0.2 -0.1
v -0.1 0.2 -0.2
v 0 0.2 -0.2
v 0.1 0.2 -0.2
v 0.2 0.2 -0.2
v -0.2 0.2 -0.3
v 0.3 0.2 -0.3
v -0.1 0.4 0.2
v 0.2 0.4 0.2
v -0.1 0.4 0.1
v 0.2 0.4 0.1
v -0.2 0.4 0.1
v -0.1 0.4 0.1
v 0.2 0.4 0.1
v 0.3 0.4 0.1
v -0.1 0.4 -0.2
v 0.2 0.4 -0.2
v -0.2 0.4 -0.3
v 0.3 0.4 -0.3
v -0.1 0.6 0.2
v 0 0.6 0.2
v 0.1 0.6 0.2
v 0.2 0.6 0.2
v -0.1 0.6 0.1
v 0 0.6 0.1
v 0.1 0.6 0.1
v 0.2 0.6 0.1
v -0.1 0.7 0.1
v 0.2 0.7 0.1
v -0.1 0.7 -0.2
v 0.2 0.7 -0.2

# faces
f 3/1/1 2/1/1 1/1/1
f 4/1/1 2/1/1 3/1/1
f 9/4/1 6/4/1 5/4/1
f 10/4/1 6/4/1 9/4/1
f 11/4/1 8/4/1 7/4/1
f 12/4/1 8/4/1 11/4/1
f 16/4/1 14/4/1 13/4/1
f 17/1/1 15/1/1 14/1/1
f 17/4/1 14/4/1 16/4/1
f 18/2/1 17/2/1 16/2/1
f 19/1/1 15/1/1 17/1/1
f 19/2/1 17/2/1 18/2/1
f 20/1/1 15/1/1 19/1/1
f 21/1/1 15/1/1 20/1/1
f 26/4/1 23/4/1 22/4/1
f 27/4/1 23/4/1 26/4/1
f 28/4/1 25/4/1 24/4/1
f 29/4/1 25/4/1 28/4/1
f 30/4/2 31/4/2 34/4/2
f 34/4/2 31/4/2 35/4/2
f 32/4/2 33/4/2 36/4/2
f 36/4/2 33/4/2 37/4/2
f 38/4/2 39/4/2 42/4/2
f 42/4/2 39/4/2 43/4/2
f 40/4/2 41/4/2 44/4/2
f 44/4/2 41/4/2 45/4/2
f 46/4/2 47/4/2 49/4/2
f 47/1/2 48/1/2 50/1/2
f 49/4/2 47/4/2 50/4/2
f 49/2/2 50/2/2 51/2/2
f 50/1/2 48/1/2 52/1/2
f 51/2/2 50/2/2 52/2/2
f 52/1/2 48/1/2 53/1/2
f 53/1/2 48/1/2 54/1/2
f 55/1/2 56/1/2 57/1/2
f 57/1/2 56/1/2 58/1/2
f 62/4/3 60/4/3 59/4/3
f 62/2/3 61/2/3 60/2/3
f 63/2/3 61/2/3 62/2/3
f 64/4/3 62/4/3 59/4/3
f 64/4/3 63/4/3 62/4/3
f 65/4/3 63/4/3 64/4/3
f 66/4/3 64/4/3 59/4/3
f 67/2/3 65/2/3 64/2/3
f 67/4/3 64/4/3 66/4/3
f 68/2/3 65/2/3 67/2/3
f 72/1/3 70/1/3 69/1/3
f 73/1/3 70/1/3 72/1/3
f 76/4/3 72/4/3 71/4/3
f 77/1/3 73/1/3 72/1/3
f 77/4/3 72/4/3 76/4/3
f 78/1/3 75/1/3 74/1/3
f 80/1/3 73/1/3 77/1/3
f 81/1/3 75/1/3 78/1/3
f 82/4/3 80/4/3 79/4/3
f 83/1/3 73/1/3 80/1/3
f 83/4/3 80/4/3 82/4/3
f 84/1/3 73/1/3 83/1/3
f 85/1/3 75/1/3 81/1/3
f 86/1/3 75/1/3 85/1/3
f 87/1/3 84/1/3 83/1/3
f 88/1/3 84/1/3 87/1/3
f 91/4/3 90/4/3 89/4/3
f 92/4/3 90/4/3 91/4/3
f 95/4/3 94/4/3 93/4/3
f 96/4/3 94/4/3 95/4/3
f 97/4/4 98/4/4 99/4/4
f 99/4/4 98/4/4 100/4/4
f 101/4/4 102/4/4 103/4/4
f 103/4/4 102/4/4 104/4/4
f 105/4/4 106/4/4 109/4/4
f 109/4/4 106/4/4 110/4/4
f 111/4/4 112/4/4 113/4/4
f 113/4/4 112/4/4 114/4/4
f 107/1/4 108/1/4 115/1/4
f 115/1/4 108/1/4 116/1/4
f 117/1/4 118/1/4 119/1/4
f 119/1/4 118/1/4 120/1/4
f 125/4/5 122/4/5 121/4/5
f 126/4/5 122/4/5 125/4/5
f 127/4/5 124/4/5 123/4/5
f 128/4/5 124/4/5 127/4/5
f 133/4/5 130/4/5 129/4/5
f 134/4/5 130/4/5 133/4/5
f 135/4/5 132/4/5 131/4/5
f 136/4/5 132/4/5 135/4/5
f 143/1/5 138/1/5 137/1/5
f 144/1/5 140/1/5 139/1/5
f 145/1/5 140/1/5 144/1/5
f 146/1/5 142/1/5 141/1/5
f 147/3/5 145/3/5 144/3/5
f 147/1/5 143/1/5 137/1/5
f 147/3/5 144/3/5 143/3/5
f 148/3/5 145/3/5 147/3/5
f 149/1/5 146/1/5 145/1/5
f 149/3/5 145/3/5 148/3/5
f 150/1/5 142/1/5 146/1/5
f 150/1/5 146/1/5 149/1/5
f 151/1/5 147/1/5 137/1/5
f 152/1/5 149/1/5 148/1/5
f 153/1/5 149/1/5 152/1/5
f 154/1/5 142/1/5 150/1/5
f 155/1/5 153/1/5 152/1/5
f 155/1/5 154/1/5 153/1/5
f 155/1/5 151/1/5 137/1/5
f 155/1/5 152/1/5 151/1/5
f 156/1/5 142/1/5 154/1/5
f 156/1/5 154/1/5 155/1/5
f 159/4/5 158/4/5 157/4/5
f 160/4/5 158/4/5 159/4/5
f 161/1/6 162/1/6 165/1/6
f 163/1/6 164/1/6 166/1/6
f 161/1/6 165/1/6 167/1/6
f 165/1/6 166/1/6 167/1/6
f 166/1/6 164/1/6 168/1/6
f 167/1/6 166/1/6 168/1/6
f 169/2/6 170/2/6 173/2/6
f 170/4/6 171/4/6 174/4/6
f 173/2/6 170/2/6 174/2/6
f 171/2/6 172/2/6 175/2/6
f 174/4/6 171/4/6 175/4/6
f 175/2/6 172/2/6 176/2/6
f 177/1/6 178/1/6 179/1/6
f 179/1/6 178/1/6 180/1/6
